<?xml version="1.0" encoding="UTF-8"?>
<svg id="Layer_1" data-name="Layer 1" xmlns="http://www.w3.org/2000/svg" xmlns:xlink="http://www.w3.org/1999/xlink" version="1.1" viewBox="0 0 204 70">
  <defs>
    <clipPath id="clippath">
      <polyline points="173.873 24.742 204 24.742 204 45.652 173.873 45.652 173.873 24.742" fill="none" stroke-width="0"/>
    </clipPath>
    <clipPath id="clippath-1">
      <polyline points="150.768 24.742 172.101 24.742 172.101 46.176 150.768 46.176 150.768 24.742" fill="none" stroke-width="0"/>
    </clipPath>
    <clipPath id="clippath-2">
      <polyline points="131.668 24.742 151.425 24.742 151.425 46.176 131.668 46.176 131.668 24.742" fill="none" stroke-width="0"/>
    </clipPath>
    <clipPath id="clippath-3">
      <polyline points="89.266 24.742 110.927 24.742 110.927 46.176 89.266 46.176 89.266 24.742" fill="none" stroke-width="0"/>
    </clipPath>
    <clipPath id="clippath-4">
      <polyline points="75.483 19.694 88.938 19.694 88.938 45.783 75.483 45.783 75.483 19.694" fill="none" stroke-width="0"/>
    </clipPath>
    <clipPath id="clippath-5">
      <polyline points="113.684 16.286 119.722 16.286 119.722 45.652 113.684 45.652 113.684 16.286" fill="none" stroke-width="0"/>
    </clipPath>
    <clipPath id="clippath-6">
      <polyline points="44.436 24.807 66.097 24.807 66.097 53.714 44.436 53.714 44.436 24.807" fill="none" stroke-width="0"/>
    </clipPath>
    <clipPath id="clippath-7">
      <polyline points="20.019 24.742 41.679 24.742 41.679 46.176 20.019 46.176 20.019 24.742" fill="none" stroke-width="0"/>
    </clipPath>
    <clipPath id="clippath-8">
      <polyline points="0 24.742 19.757 24.742 19.757 46.176 0 46.176 0 24.742" fill="none" stroke-width="0"/>
    </clipPath>
    <clipPath id="clippath-9">
      <polyline points="122.019 31.296 129.699 31.296 129.699 38.9 122.019 38.9 122.019 31.296" fill="none" stroke-width="0"/>
    </clipPath>
    <clipPath id="clippath-10">
      <polyline points="67.278 16.548 74.564 16.548 74.564 23.889 67.278 23.889 67.278 16.548" fill="none" stroke-width="0"/>
    </clipPath>
  </defs>
  <g clip-path="url(#clippath)">
    <path d="M190.536,27.477c1.122-1.618,2.968-2.67,5.815-2.67,4.614,0,7.622,3.318,7.622,8.377v12.423h-6.019v-11.897c0-2.024-.962-3.318-2.886-3.318-2.007,0-3.13,1.416-3.13,3.804v11.412h-6.018v-11.897c0-2.024-.963-3.318-2.888-3.318-2.006,0-3.129,1.416-3.129,3.804v11.412h-6.017v-20.234h6.017v1.861c.923-1.374,2.689-2.427,5.375-2.427,2.366,0,4.132.971,5.256,2.67M204,24.742h-30.127v20.91h30.127v-20.91" fill="#fff" stroke-width="0"/>
    <path d="M196.351,24.807c-2.847,0-4.693,1.053-5.815,2.67-1.124-1.7-2.89-2.67-5.256-2.67-2.686,0-4.452,1.053-5.375,2.427v-1.861h-6.017v20.234h6.017v-11.412c0-2.388,1.123-3.804,3.129-3.804,1.925,0,2.888,1.295,2.888,3.318v11.897h6.018v-11.412c0-2.388,1.123-3.804,3.13-3.804,1.924,0,2.886,1.295,2.886,3.318v11.897h6.019v-12.423c0-5.059-3.008-8.377-7.622-8.377" fill="#000" stroke-width="0"/>
  </g>
  <g clip-path="url(#clippath-1)">
    <path d="M161.452,30.715c-2.608,0-4.613,1.902-4.613,4.775s2.006,4.775,4.613,4.775,4.614-1.902,4.614-4.775-2.007-4.775-4.614-4.775M172.101,24.742h-20.676v5.244h0v1.889c1.455-4.177,5.38-7.067,10.027-7.067,5.896,0,10.631,4.653,10.631,10.684s-4.734,10.683-10.631,10.683c-4.647,0-8.573-2.89-10.027-7.067v1.846h0v5.223h-.656,21.332v-21.434" fill="#fff" stroke-width="0"/>
    <path d="M161.452,40.266c-2.608,0-4.613-1.902-4.613-4.775s2.006-4.775,4.613-4.775,4.614,1.902,4.614,4.775-2.007,4.775-4.614,4.775M161.452,24.807c-4.647,0-8.573,2.89-10.027,7.067v7.232c1.455,4.177,5.38,7.067,10.027,7.067,5.896,0,10.631-4.653,10.631-10.683s-4.734-10.684-10.631-10.684" fill="#000" stroke-width="0"/>
  </g>
  <g clip-path="url(#clippath-2)">
    <path d="M151.425,24.742h-19.757v21.434h19.101v-4.185c-1.857,2.563-4.93,4.183-8.411,4.183-6.098,0-10.631-4.653-10.631-10.683s4.533-10.684,10.631-10.684c3.448,0,6.548,1.619,8.411,4.155v-4.22h.656" fill="#fff" stroke-width="0"/>
    <path d="M151.425,40.953c-.197.361-.417.707-.656,1.038v4.185h.656v-5.223h0M151.425,24.742h-.656v4.22c.24.327.459.668.656,1.024v-5.244" fill="#fff" stroke-width="0"/>
    <path d="M150.768,30.37l-4.601,2.692c-.682-1.416-2.126-2.267-3.892-2.267-2.606,0-4.531,1.903-4.531,4.695s1.925,4.694,4.531,4.694c1.766,0,3.251-.851,3.892-2.267l4.601,2.656v-10.204" fill="#fff" stroke-width="0"/>
    <path d="M151.425,29.986l-.656.384v10.204l.656.379v-1.846c-.391-1.123-.604-2.339-.604-3.616s.213-2.493.604-3.616v-1.889h0" fill="#fff" stroke-width="0"/>
    <path d="M151.425,31.874c-.391,1.123-.604,2.339-.604,3.616s.213,2.493.604,3.616v-7.232" fill="#000" stroke-width="0"/>
    <path d="M142.358,24.807c-6.098,0-10.631,4.653-10.631,10.684s4.533,10.683,10.631,10.683c3.481,0,6.554-1.62,8.411-4.183v-1.417l-4.601-2.656c-.641,1.416-2.126,2.267-3.892,2.267-2.606,0-4.531-1.901-4.531-4.694s1.925-4.695,4.531-4.695c1.766,0,3.21.851,3.892,2.267l4.601-2.692v-1.408c-1.863-2.536-4.963-4.155-8.411-4.155" fill="#000" stroke-width="0"/>
    <path d="M150.768,40.574v1.417c.24-.331.459-.677.656-1.038h0l-.656-.379M150.768,28.962v1.408l.656-.384c-.197-.355-.417-.697-.656-1.024" fill="#000" stroke-width="0"/>
  </g>
  <g clip-path="url(#clippath-3)">
    <path d="M100.091,30.552c-2.768,0-4.774,1.903-4.774,4.939s2.005,4.937,4.774,4.937,4.774-1.901,4.774-4.937-2.007-4.939-4.774-4.939M98.888,46.174c-5.254,0-9.587-4.653-9.587-10.683s4.333-10.684,9.587-10.684c2.689,0,4.653.931,5.978,2.468v-1.902h6.016v20.234h-6.016v-1.902c-1.324,1.537-3.289,2.469-5.978,2.469M110.927,24.742h-21.66v21.434h21.66v-21.434" fill="#fff" stroke-width="0"/>
    <path d="M100.091,40.428c-2.768,0-4.774-1.901-4.774-4.937s2.005-4.939,4.774-4.939,4.774,1.903,4.774,4.939-2.007,4.937-4.774,4.937M98.888,24.807c-5.254,0-9.587,4.653-9.587,10.684s4.333,10.683,9.587,10.683c2.689,0,4.653-.932,5.978-2.469v1.902h6.016v-20.234h-6.016v1.902c-1.324-1.537-3.289-2.468-5.978-2.468" fill="#000" stroke-width="0"/>
  </g>
  <g clip-path="url(#clippath-4)">
    <path d="M75.541,31.202v-5.828h3.21v-3.845l6.016-1.82v5.665h4.133v5.828h-4.133v7.162c0,1.421.989,1.79,2.792,1.79.406,0,.854-.019,1.341-.048v5.503c-.993.102-1.899.154-2.721.154-5.685,0-7.428-2.448-7.428-7.398v-7.162h-3.21M88.938,19.694h-13.455v26.089h13.455v-26.089" fill="#fff" stroke-width="0"/>
    <path d="M84.767,19.709l-6.016,1.82v3.845h-3.21v5.828h3.21v7.162c0,4.95,1.744,7.398,7.428,7.398.822,0,1.728-.051,2.721-.154v-5.503c-.487.03-.935.048-1.341.048-1.803,0-2.792-.369-2.792-1.79v-7.162h4.133v-5.828h-4.133v-5.665" fill="#000" stroke-width="0"/>
  </g>
  <rect x="67.856" y="25.374" width="6.017" height="20.233" fill="#000" stroke-width="0"/>
  <g clip-path="url(#clippath-5)">
    <path d="M113.691,45.607v-27.424l6.016-1.85v29.273h-6.016M119.722,16.286h-6.038v29.366h6.038v-29.366" fill="#fff" stroke-width="0"/>
    <polyline points="119.706 16.334 113.691 18.184 113.691 45.607 119.706 45.607 119.706 16.334" fill="#000" stroke-width="0"/>
  </g>
  <g clip-path="url(#clippath-6)">
    <path d="M55.261,30.556c-2.77,0-4.777,1.898-4.777,4.936s2.007,4.935,4.777,4.935,4.772-1.902,4.772-4.935-2.008-4.936-4.772-4.936M50.484,27.274c1.325-1.537,3.291-2.466,5.98-2.466,5.256,0,9.586,4.651,9.586,10.684s-4.33,10.682-9.586,10.682c-2.69,0-4.655-.933-5.98-2.471v9.999h-6.017v-28.327h6.017v1.899M66.097,24.807h-21.66v28.908s21.66,0,21.66,0v-28.907" fill="#fff" stroke-width="0"/>
    <path d="M55.261,40.427c-2.77,0-4.777-1.902-4.777-4.935s2.007-4.936,4.777-4.936,4.772,1.898,4.772,4.936-2.008,4.935-4.772,4.935M56.465,24.809c-2.69,0-4.655.928-5.98,2.466v-1.899h-6.017v28.327h6.017v-9.999c1.325,1.538,3.291,2.471,5.98,2.471,5.256,0,9.586-4.655,9.586-10.682s-4.33-10.684-9.586-10.684" fill="#000" stroke-width="0"/>
  </g>
  <g clip-path="url(#clippath-7)">
    <path d="M30.87,30.552c-2.766,0-4.772,1.903-4.772,4.939s2.006,4.937,4.772,4.937,4.774-1.901,4.774-4.937-2.005-4.939-4.774-4.939M29.667,46.174c-5.254,0-9.587-4.653-9.587-10.683s4.332-10.684,9.587-10.684c2.689,0,4.653.931,5.977,2.468v-1.902h6.018v20.234h-6.018v-1.902c-1.324,1.537-3.289,2.469-5.977,2.469M41.679,24.742h-21.66v21.435h21.66s0-21.435,0-21.435" fill="#fff" stroke-width="0"/>
    <path d="M30.87,40.428c-2.766,0-4.772-1.901-4.772-4.937s2.006-4.939,4.772-4.939,4.774,1.903,4.774,4.939-2.005,4.937-4.774,4.937M29.667,24.807c-5.254,0-9.587,4.653-9.587,10.684s4.332,10.683,9.587,10.683c2.689,0,4.653-.932,5.977-2.469v1.902h6.018v-20.234h-6.018v1.902c-1.324-1.537-3.289-2.468-5.977-2.468" fill="#000" stroke-width="0"/>
  </g>
  <g clip-path="url(#clippath-8)">
    <path d="M10.686,46.174C4.59,46.174.056,41.521.056,35.491s4.534-10.684,10.629-10.684c3.892,0,7.342,2.063,9.066,5.179l-5.254,3.077c-.682-1.416-2.126-2.267-3.892-2.267-2.607,0-4.533,1.903-4.533,4.695s1.926,4.694,4.533,4.694c1.765,0,3.25-.851,3.892-2.267l5.254,3.035c-1.724,3.156-5.134,5.221-9.066,5.221M19.757,24.742H0v21.434h19.757v-21.434" fill="#fff" stroke-width="0"/>
    <path d="M10.686,24.807C4.59,24.807.056,29.46.056,35.491s4.534,10.683,10.629,10.683c3.932,0,7.342-2.065,9.066-5.221l-5.254-3.035c-.642,1.416-2.126,2.267-3.892,2.267-2.607,0-4.533-1.901-4.533-4.694s1.926-4.695,4.533-4.695c1.765,0,3.21.851,3.892,2.267l5.254-3.077c-1.724-3.116-5.175-5.179-9.066-5.179" fill="#000" stroke-width="0"/>
  </g>
  <g clip-path="url(#clippath-9)">
    <path d="M125.858,38.896c-2.066,0-3.796-1.726-3.796-3.789s1.73-3.789,3.796-3.789,3.793,1.727,3.793,3.789-1.728,3.789-3.793,3.789M129.699,31.296h-7.68v7.604h7.68v-7.604" fill="#fff" stroke-width="0"/>
    <path d="M125.858,31.317c-2.066,0-3.796,1.727-3.796,3.789s1.73,3.789,3.796,3.789,3.793-1.726,3.793-3.789-1.728-3.789-3.793-3.789" fill="#9e7357" stroke-width="0"/>
  </g>
  <g clip-path="url(#clippath-10)">
    <path d="M70.937,23.866c-1.965,0-3.61-1.661-3.61-3.644s1.645-3.642,3.61-3.642,3.61,1.659,3.61,3.642-1.645,3.644-3.61,3.644M74.564,16.548h-7.286v7.341h7.286v-7.341" fill="#fff" stroke-width="0"/>
    <path d="M70.937,16.581c-1.965,0-3.61,1.659-3.61,3.642s1.645,3.644,3.61,3.644,3.61-1.661,3.61-3.644-1.645-3.642-3.61-3.642" fill="#000" stroke-width="0"/>
  </g>
</svg>