<svg xmlns="http://www.w3.org/2000/svg" width="228" height="49"><path d="M46 46H0V0h46v46z" fill="#ed1c24"/><path d="M18 38h10V28h10V18H28V8H18v10H8v10h10v10z" fill="#fff"/><path d="M221.1 5l-4.6 6.9-4.4-6.9h-7.3l.7 1c-1.1-.4-2.8-1-4-1h-10.4v6.6c-.4-1.5-1.2-2.8-2.4-3.9-1.9-1.7-4.1-2.8-8.1-2.8h-.1c-3.9 0-6 1.1-7.9 2.8-1.1 1-1.9 2.3-2.4 3.8-.2-.5-.5-1.4-.6-1.8-.6-1.3-1.6-2.4-2.8-3.2-1.1-.7-2.2-1.1-3.5-1.3 0 0-.9-.3-2.8-.3-4.1-.1-6 1-7.8 2.7s-2.7 4.2-2.8 7.4v.3c-.7-.8-1.5-1.5-2.5-1.9-2-.8-4-1.4-6.1-1.7-.8-.1-1.5-.3-2.2-.7-.3-.2-.4-.5-.4-.8 0-.4.2-.8.6-1.1.5-.3 1.1-.5 1.7-.4.8 0 1.5.2 2.2.6.6.4.9 1.1 1 1.8h6.2c-.1-1.8-1.1-3.5-2.6-4.6-1.9-1.1-4-1.6-6.1-1.6-2.6 0-3.5.4-5.2 1-1.1.4-2.1 1.1-2.8 2.1-.6.8-.9 1.8-.9 2.8 0 1.5.7 2.9 1.8 3.8 1.8 1.2 3.9 2 6.1 2.3 1.2.2 2.3.5 3.3 1.2.4.3.7.8.7 1.3 0 .6-.3 1.1-.8 1.4-.6.4-1.4.7-2.2.6-1.1.1-2.1-.4-2.9-1.2-.5-.5-.7-1.2-.8-1.9h-5.9L126.6 5h-6.7L113 22.3l-6.3-9.6 8.1-7.7h-8.5l-7.1 7.6V5h-6.6v13.2c-.1.6-.4 1.1-.9 1.5-.7.6-1.7.9-2.6.9-1 .1-1.9-.3-2.6-.9-.7-.7-1-1.6-.9-2.5V5h-6.5v4.7c-.1-.7-.2-1.4-.5-2-.4-1.5-1.1-2.8-2.1-3.9s-2.3-2-3.7-2.6C71 .4 69 0 67 0H55v25h11c2-.2 4-.4 6-1 1.4-.3 2.6-1 3.7-1.9 1.2-1 2.1-2.2 2.7-3.6.4-.9.6-1.9.8-2.9V17c0 1.1.2 2.2.6 3.3.3.8.8 1.6 1.4 2.3.6.7 1.4 1.3 2.2 1.7.9.4 2 .7 3 .8 1.2.1 2.3.2 3.3.2 1.2 0 2.2 0 3.4-.3H99v-4.4l3.5-3.7 4.4 8.1h11.9l1-3.3h7.4l1 3.3h6.8l-.6-1.7c1.4 1.3 3.8 1.9 7.4 1.9 1.7.1 3.5-.2 5.1-.8 1.3-.5 2.3-1.3 3.1-2.4.5-.6.8-1.4 1-2.2.2.4.4.8.7 1.2.9 1.4 2.2 2.6 3.7 3.3 1.8.7 3.7 1 5.6.9.8 0 1.6-.1 2.5-.2.8-.1 1.5-.3 2.2-.6 1.2-.5 2.2-1.3 3-2.3.6-.7 1.1-1.5 1.4-2.4.1-.2.2-.7.2-1.1.2.7.6 1.5 1 2.1.9 1.5 2.2 2.6 3.8 3.3 1.8.7 2.5 1.1 4.7 1.1h1.6c1.6 0 3.6-.4 5.5-1.3 2.1-1.1 3.7-3 4.4-5.3V25h6.5v-7.5h3.6c2.6 0 4.6-.5 5.8-1.6 1.3-1.2 2-2.9 1.9-4.6v-.7l4.4 6.1v8.2h6.5v-8.2l8-11.3-1.3-.4h-5.6zM70.5 16.8c-.3.8-.9 1.4-1.7 1.9-.6.3-1.2.2-1.8.3h-4V6h4c1 0 4.1.7 4.1 6.5.1 1.5-.1 2.9-.6 4.3zm50.8.6l2.2-6.7.1-.3 2.3 7h-4.6zm48.8.4h-5.7c-.1.7-.5 1.4-.9 1.9-.8.7-1.8 1-2.8 1-1.1.1-2.2-.4-3-1.2-.7-.8-1.1-2.3-1.1-4.4-.1-1.3.2-2.7.9-3.8.8-1.1 2-1.7 3.4-1.7.6 0 1.2.1 1.8.4.3.1.6.3.8.5.4.3.7.8.9 1.3h5.9c-.3 1.1-.5 2.3-.5 3.4 0 .8.1 1.7.3 2.6zm13.9 1.6c-.8.9-2 1.3-3.3 1.3-1.2.1-2.4-.4-3.2-1.3-.9-1.2-1.3-2.7-1.2-4.2-.1-1.5.3-3 1.2-4.3.8-.9 2-1.4 3.1-1.3h.1c1.2 0 2.4.4 3.2 1.3.9 1.1 1.3 2.6 1.2 4 0 2.1-.4 3.7-1.1 4.5zm17.9-6.3c-.8.4-1.7.7-2.6.6h-1.6V9.3h1.9c.9-.1 1.7.2 2.5.6.4.4.7 1 .7 1.6-.1.6-.4 1.2-.9 1.6zm-21.2 7.6z"/><path d="M55.8 43.3c.4.7 1 1.2 1.8 1.5.9.4 1.8.5 2.8.5.8 0 1.6-.2 2.4-.5.7-.3 1.2-.8 1.6-1.4.4-.5.6-1.2.6-1.7 0-.6-.2-1.2-.5-1.7-.4-.6-1-1-1.6-1.3-.9-.3-1.8-.6-2.7-.8-.9-.1-1.7-.4-2.5-.9-.3-.3-.5-.7-.5-1.1 0-.5.3-1 .7-1.3.6-.4 1.4-.6 2.2-.6.8-.1 1.5.2 2.1.6.5.4.8 1.1.9 1.7l1.6-.1c0-.7-.2-1.4-.6-1.8-.4-.6-1-1-1.6-1.3-.8-.3-1.6-.5-2.4-.4-.8 0-1.5.1-2.3.4-.6.2-1.2.7-1.6 1.2-.3.5-.5 1.1-.5 1.6s.1 1.1.4 1.5c.3.5.8.9 1.3 1.2.8.3 1.6.6 2.4.8.7.2 1.5.4 2.2.6.4.1.8.4 1.1.7.2.3.3.6.3 1s-.1.8-.4 1.1c-.3.4-.6.6-1.1.8-.5.2-1.1.3-1.6.3-.6 0-1.3-.1-1.9-.4-.5-.2-.9-.5-1.2-1s-.5-1-.5-1.5h-1.5c-.1.9.2 1.6.6 2.3zm14.6 1.6l1.8-6.7.4 1.5 1.4 5.1h1.6l2.8-8.6h-1.5l-1.5 5-.5 1.6-.4-1.6-1.5-4.9h-1.6l-1.4 5c-.3 1.1-.4 1.7-.5 1.7l-.5-1.7-1.4-5H66l2.7 8.6h1.7zm10.9-10.3v-1.7h-1.5v1.7h1.5zm0 10.3v-8.6h-1.5v8.6h1.5zm3-.5c.8.5 1.7.8 2.7.7.6 0 1.3-.1 1.9-.4.5-.2 1-.6 1.3-1s.4-.9.4-1.4-.1-.9-.4-1.3c-.3-.4-.6-.6-1-.8-.7-.3-1.5-.5-2.2-.7-.7-.2-1.2-.3-1.3-.4-.2-.1-.4-.2-.6-.4-.1-.1-.2-.3-.2-.5 0-.3.2-.6.4-.8.4-.3 1-.4 1.5-.3.5 0 1 .1 1.4.4.3.3.5.7.6 1.1l1.5-.2c-.1-.5-.2-1-.5-1.4s-.7-.7-1.2-.8c-.6-.3-1.3-.4-1.9-.4-.4 0-.9.1-1.3.2-.3.1-.7.2-1 .4-.3.2-.6.5-.8.8-.2.3-.3.7-.3 1.1 0 .9.5 1.6 1.3 2 .7.3 1.5.5 2.3.7.5.1 1.1.3 1.6.5.3.2.4.5.4.8 0 .4-.2.8-.5 1-.4.3-1 .5-1.6.4-.6 0-1.1-.1-1.6-.5-.4-.4-.7-.8-.7-1.4l-1.5.4c.3 1 .7 1.7 1.3 2.2zm8.8 0c.8.5 1.7.8 2.7.7.6 0 1.3-.1 1.9-.4.5-.2 1-.6 1.3-1s.4-.9.4-1.4-.1-.9-.4-1.3c-.3-.4-.6-.6-1-.8-.7-.3-1.5-.5-2.2-.7-.7-.2-1.2-.3-1.3-.4-.2-.1-.4-.2-.6-.4-.1-.2-.2-.3-.2-.5 0-.3.2-.6.4-.8.4-.3 1-.4 1.5-.3.5 0 1 .1 1.4.4.3.3.5.7.6 1.1l1.5-.2c-.1-.5-.2-1-.5-1.4s-.7-.7-1.2-.8c-.6-.2-1.2-.3-1.9-.3-.4 0-.9.1-1.3.2-.3.1-.7.2-1 .4-.3.2-.6.5-.8.8-.2.3-.3.7-.3 1.1 0 .9.5 1.6 1.3 2 .7.3 1.5.5 2.3.7.5.1 1.1.3 1.6.5.3.2.5.5.4.8 0 .4-.2.8-.5 1-.4.3-1 .5-1.6.4-.6 0-1.1-.1-1.6-.5-.4-.4-.7-.8-.7-1.4l-1.5.2c.3 1.1.7 1.8 1.3 2.3zm18 .5c.7 0 1.3-.1 2-.2.5-.1.9-.3 1.4-.6.4-.3.7-.7.9-1.2.2-.5.4-1.1.4-1.5 0-.7-.2-1.3-.6-1.8s-1-.9-1.7-1.1c.5-.2 1-.6 1.3-1.1.3-.4.4-1 .4-1.5 0-.6-.2-1.1-.5-1.5-.3-.5-.8-.9-1.3-1.2-.7-.3-1.5-.4-2.3-.4h-4.6v11.9l4.6.2zm-3-10.4h2.5c.6 0 1.3 0 1.9.2.3.1.6.3.8.6.2.3.3.7.3 1.1 0 .4-.1.8-.3 1.1-.2.3-.6.5-.9.6-.5.1-1 .2-1.6.1h-2.7v-3.7zm0 4.9h2.9c.6 0 1.2 0 1.8.2.4.1.7.4 1 .7.4.7.5 1.5.1 2.1-.1.3-.4.5-.6.7-.3.2-.6.3-.9.3-.4 0-.7.1-1.1.1h-3.1v-4.1h-.1zm16 5.5h1.6c-.2-.3-.3-.7-.4-1.1-.1-.9-.1-1.7-.1-2.6v-1.9c0-.5 0-.9-.1-1.4-.1-.4-.2-.7-.5-1s-.6-.5-1.1-.7c-.6-.2-1.2-.3-1.9-.3s-1.4.1-2 .3c-.5.2-1 .5-1.3.9-.3.5-.6 1-.7 1.5l1.5.2c.1-.5.4-1 .8-1.3.5-.3 1-.4 1.6-.4s1.2.1 1.7.5c.3.4.5.8.4 1.3v.4c-.9.3-1.8.4-2.7.5-.5 0-.9.1-1.4.2-.4.1-.8.3-1.1.5-.3.2-.6.5-.8.9-.2.4-.3.8-.3 1.2 0 .7.3 1.4.8 1.7.6.5 1.4.8 2.3.7.6 0 1.1-.1 1.7-.3.6-.2 1.1-.6 1.6-1 .1.5.2.9.4 1.2zm-.4-3.8c0 .5-.1 1-.2 1.5-.2.4-.6.8-1 1-.5.3-1 .4-1.6.4-.5 0-1-.1-1.3-.4-.3-.2-.5-.6-.5-1 0-.3.1-.5.2-.7.1-.2.4-.4.6-.5.4-.2.9-.3 1.3-.3.8-.1 1.7-.3 2.5-.6v.6zm5.6 3.8v-4.7c-.1-.8.2-1.6.7-2.2.5-.4 1.1-.6 1.7-.6.4 0 .7.1 1.1.3.3.2.5.4.6.7.1.5.2.9.2 1.4V45h1.5v-5.3c0-.5 0-1-.1-1.5-.1-.4-.2-.8-.5-1.1s-.6-.6-1-.8c-.5-.2-1-.3-1.5-.3-1.1 0-2.2.5-2.8 1.5v-1.3h-1.4v8.6l1.5.1zm9.7 0v-3.4l1.1-1L143 45h1.9l-3.8-5.4 3.4-3.2h-2l-3.6 3.5v-6.8h-1.5V45l1.6-.1zm8.8-10.3v-1.7h-1.5v1.7h1.5zm0 10.3v-8.6h-1.5v8.6h1.5zm4 0v-4.7c-.1-.8.2-1.6.7-2.2.5-.4 1.1-.6 1.7-.6.4 0 .7.1 1.1.3.3.2.5.4.6.7.1.4.2.9.2 1.4V45h1.5v-5.3c0-.5 0-1-.1-1.5-.1-.4-.2-.8-.5-1.1s-.6-.6-1-.8c-.5-.2-1-.3-1.5-.3-1.1 0-2.2.5-2.9 1.5v-1.3h-1.4v8.6l1.6.1zm8.9 2.8c.8.5 1.7.8 2.6.7.8 0 1.6-.1 2.3-.5.6-.3 1.1-.8 1.4-1.4.3-.9.5-1.9.4-2.9v-7.4H166v1.1c-.6-.8-1.6-1.3-2.6-1.3-1.5 0-2.9.9-3.4 2.2-.3.7-.5 1.5-.5 2.3 0 1.1.3 2.2 1 3.1.7.9 1.7 1.4 2.9 1.3 1 0 1.9-.4 2.5-1.2 0 .7 0 1.3-.1 1.8s-.4.9-.8 1.2c-.5.3-1 .5-1.6.4-.5 0-1.1-.1-1.5-.4-.3-.2-.5-.6-.5-1l-1.5-.2c-.2.9.1 1.7.8 2.2zm1-9.6c.4-.5 1.1-.8 1.7-.8.7 0 1.3.3 1.8.8.5.7.8 1.5.7 2.4.1.9-.2 1.7-.7 2.4-.8 1-2.3 1.1-3.2.3l-.3-.3c-.5-.7-.8-1.6-.7-2.5 0-.8.2-1.6.7-2.3zm22.7 2.2v2.2c-.5.4-1 .7-1.5.9-.7.3-1.4.4-2.1.4-.8 0-1.6-.2-2.3-.5-.7-.4-1.3-.9-1.6-1.6-.4-.9-.6-1.7-.6-2.7 0-.8.2-1.6.5-2.4.2-.4.5-.9.8-1.2.4-.4.8-.7 1.3-.9.6-.2 1.3-.4 1.9-.3.6 0 1.2.1 1.7.3.5.2.9.5 1.2.9s.6.9.7 1.5l1.5-.4c-.2-.7-.5-1.4-.9-1.9s-1-1-1.7-1.2c-.8-.3-1.6-.5-2.4-.4-1.1 0-2.3.2-3.3.8-1 .5-1.7 1.3-2.2 2.2-.5 1-.8 2.1-.8 3.3 0 1.1.2 2.2.8 3.2.5 1 1.3 1.7 2.2 2.2 1 .5 2.2.8 3.3.8.9 0 1.8-.2 2.6-.5.9-.3 1.7-.8 2.5-1.4v-4.4h-5.2v1.4l3.6-.3zm5.5 4.6v-4.5c0-.6.1-1.2.3-1.7.1-.3.3-.6.6-.8.3-.2.6-.3.9-.3.4 0 .8.1 1.1.3l.5-1.4c-.5-.3-1-.5-1.6-.5-.3 0-.7.1-1 .3-.4.3-.7.8-1 1.3v-1.4h-1.4v8.6l1.6.1zm5-1c.8.8 1.9 1.2 3 1.2.8 0 1.5-.2 2.2-.5.6-.4 1.2-.9 1.5-1.5.4-.8.6-1.7.5-2.6.1-1.2-.3-2.3-1.2-3.2-.8-.8-1.9-1.3-3-1.2-1 0-2 .3-2.8 1-1 1-1.5 2.2-1.4 3.6-.1 1.1.3 2.4 1.2 3.2zm1.1-5.8c.9-1 2.5-1.1 3.5-.2.1.1.2.1.2.2.5.7.8 1.5.8 2.4.1.9-.2 1.8-.8 2.5-.5.6-1.1.9-1.9.9-.7 0-1.4-.3-1.9-.9-.9-1.4-.9-3.3.1-4.9zm15.2 6.8v-8.6h-1.5v4.6c0 .6-.1 1.2-.3 1.7-.2.4-.5.7-.9.9-.4.2-.8.4-1.3.3-.4 0-.8-.1-1.1-.3-.3-.2-.5-.6-.6-.9-.1-.5-.1-1.1-.1-1.5v-4.8H204v5.3c0 .5 0 1 .1 1.4s.2.8.5 1.1c.3.3.6.6 1 .8.5.2 1 .3 1.5.3 1.1 0 2.2-.5 2.8-1.5V45h1.3v-.1zm4.1 3.4v-4.2c.3.3.6.6 1 .8.4.2.9.3 1.4.3.7 0 1.4-.2 2-.6.6-.4 1.1-1 1.4-1.6.3-.8.5-1.5.5-2.4 0-.8-.1-1.5-.4-2.3-.3-.7-.7-1.3-1.3-1.6s-1.3-.6-2-.6c-.5 0-1 .1-1.5.3-.4.3-.8.6-1.1 1v-1.2h-1.4v12h1.4v.1zm.6-10.2c.4-.6 1-.9 1.7-.9s1.3.3 1.7.8c.5.7.8 1.6.7 2.5.1.9-.2 1.8-.7 2.5-.4.5-1.1.9-1.7.9-.7 0-1.3-.3-1.7-.8-.5-.7-.8-1.5-.7-2.5-.1-.8.2-1.8.7-2.5z" fill="#838383"/></svg>