<svg width="95" height="40" viewBox="0 0 95 40" fill="none" xmlns="http://www.w3.org/2000/svg">
    <path fill-rule="evenodd" clip-rule="evenodd" d="M75.6908 4.80128C74.9171 4.80128 74.1888 4.84448 73.4606 4.88768C76.5101 4.88768 89.4363 7.60921 89.4363 15.1258C89.4363 19.8777 85.2489 22.34 77.7845 22.34H61.3537C57.9856 22.2968 55.2547 19.7049 55.2547 16.5081C55.2547 13.2682 57.9856 10.6763 61.3992 10.6763C63.0833 10.6763 64.6308 11.3243 65.7686 12.4043L70.138 8.25718C67.9078 6.14045 64.8583 4.84449 61.4447 4.84449C54.663 4.84449 49.1558 10.0715 49.1558 16.5081C49.1558 22.9448 54.6175 28.1718 61.3992 28.1718H61.4447H78.3307C88.526 28.1718 94.2153 22.9448 94.2153 16.5081C94.1243 10.0283 85.8861 4.80128 75.6908 4.80128Z" fill="#83B630"/>
    <path fill-rule="evenodd" clip-rule="evenodd" d="M0 16.5081C0 22.9448 8.28367 28.1718 18.479 28.1718C19.2527 28.1718 19.9809 28.1286 20.7092 28.0854C17.6597 28.0854 4.73353 25.3639 4.73353 17.8473C4.73353 13.0954 8.92088 10.6331 16.3853 10.6331H26.7171V28.1718H32.8161V10.6331V4.80128H15.8846C5.64382 4.80128 0 10.0283 0 16.5081Z" fill="#83B630"/>
    <path fill-rule="evenodd" clip-rule="evenodd" d="M31.4963 0.956619H27.9917C27.2635 0.956619 26.7173 1.5182 26.7173 2.16619C26.7173 2.85737 27.309 3.37575 27.9917 3.37575H31.4963C32.2246 3.37575 32.7707 2.81417 32.7707 2.16619C32.8163 1.47501 32.2246 0.956619 31.4963 0.956619Z" fill="#83B630"/>
    <path fill-rule="evenodd" clip-rule="evenodd" d="M48.2455 10.6331C49.4289 8.21399 51.3405 6.18364 53.7072 4.80128H40.9176H34.9097V10.6331V14.1322V19.964V28.1286H40.9176V19.964H47.3352C47.0166 18.8409 46.88 17.6745 46.88 16.4649C46.88 15.6874 46.9711 14.8666 47.1076 14.1322H40.9631V10.6331H48.2455Z" fill="#83B630"/>
    <path d="M46.9254 31.4981L45.3779 39.0579H44.0125L45.0138 34.09L41.6913 38.1939H41.054L39.279 34.0037L38.2321 39.0579H36.8667L38.4142 31.4981H39.5976L41.6457 36.5524L45.6965 31.4981H46.9254Z" fill="#83B630"/>
    <path d="M52.979 37.2868H49.0648L47.9269 39.0579H46.3794L51.4315 31.4981H52.888L54.8451 39.0579H53.3887L52.979 37.2868ZM52.7059 36.2068L51.9322 32.8805L49.793 36.2068H52.7059Z" fill="#83B630"/>
    <path d="M62.7644 35.602C62.3548 36.1204 61.8086 36.466 61.0804 36.6388L62.4913 39.0579H60.9438L59.6694 36.8548H57.7578L57.3027 39.0579H55.8462L57.3937 31.4981H60.4432C61.399 31.4981 62.1272 31.7141 62.6279 32.1029C63.1285 32.4917 63.4016 33.0533 63.4016 33.7877C63.3561 34.4788 63.1741 35.0836 62.7644 35.602ZM61.3535 35.2132C61.7176 34.9108 61.9452 34.4788 61.9452 33.8741C61.9452 33.4853 61.8086 33.1829 61.5355 32.9669C61.2624 32.7509 60.8528 32.6645 60.3066 32.6645H58.6681L58.0309 35.6884H59.7605C60.3977 35.6884 60.9438 35.5156 61.3535 35.2132Z" fill="#83B630"/>
    <path d="M68.3173 34.9972L71.0937 39.0579H69.5007L67.2704 35.8612L65.7684 37.114L65.3588 39.0579H63.9023L65.4498 31.4981H66.9063L66.1326 35.3428L70.684 31.4981H72.5046L68.3173 34.9972Z" fill="#83B630"/>
    <path d="M74.8261 32.6645L74.4165 34.6516H78.1942L77.9666 35.818H74.1889L73.7793 37.8915H78.1942L77.9666 39.0579H72.0952L73.6427 31.4981H79.332L79.1045 32.6645H74.8261V32.6645Z" fill="#83B630"/>
    <path d="M82.4269 32.6645H79.8325L80.0601 31.4549H86.6597L86.3866 32.6645H83.7923L82.5634 39.0579H81.1069L82.4269 32.6645Z" fill="#83B630"/>
    <path d="M86.9785 38.8851C86.4323 38.7123 85.9772 38.4963 85.7041 38.2371L86.2958 37.114C86.6144 37.3731 87.024 37.5459 87.4792 37.7187C87.9343 37.8483 88.3895 37.9347 88.8446 37.9347C89.4363 37.9347 89.8915 37.8483 90.2101 37.6323C90.5287 37.4595 90.7107 37.2003 90.7107 36.8548C90.7107 36.682 90.6197 36.5092 90.4831 36.3796C90.3466 36.25 90.1645 36.1636 89.9825 36.0772C89.8004 35.9908 89.4818 35.9044 89.1177 35.818C88.617 35.6884 88.2074 35.5156 87.8888 35.386C87.5702 35.2564 87.2971 35.0404 87.0695 34.7812C86.842 34.522 86.7509 34.1764 86.7509 33.7444C86.7509 33.2693 86.8875 32.8373 87.1606 32.4485C87.4337 32.0597 87.8433 31.8005 88.344 31.5845C88.8446 31.3685 89.4363 31.2821 90.119 31.2821C90.6197 31.2821 91.1203 31.3253 91.5755 31.4549C92.0306 31.5845 92.3948 31.7141 92.7589 31.9301L92.2127 33.0533C91.9396 32.8805 91.5755 32.7077 91.2114 32.6213C90.8473 32.5349 90.4831 32.4485 90.0735 32.4485C89.4818 32.4485 89.0267 32.5349 88.7081 32.7509C88.3895 32.9669 88.2074 33.2261 88.2074 33.5717C88.2074 33.7876 88.2984 33.9172 88.435 34.0468C88.5715 34.1764 88.7536 34.2628 88.9356 34.3492C89.1177 34.4356 89.4363 34.522 89.8004 34.6516C90.3011 34.7812 90.7107 34.9108 90.9838 35.0404C91.3024 35.17 91.5755 35.3428 91.7576 35.602C91.9851 35.8612 92.0762 36.1636 92.0762 36.5956C92.0762 37.114 91.9396 37.5459 91.6665 37.8915C91.3934 38.2803 90.9838 38.5395 90.4376 38.7555C89.937 38.9715 89.2998 39.0579 88.6626 39.0579C88.1164 39.1443 87.5247 39.0579 86.9785 38.8851Z" fill="#83B630"/>
</svg>
