<svg width="73" height="31" viewBox="0 0 73 31" fill="none" xmlns="http://www.w3.org/2000/svg">
<g clip-path="url(#clip0_4523_85441)">
<path d="M22.522 22.318H20.9077C20.9077 22.318 20.8865 22.3251 20.8865 22.3393V23.5529C20.8865 23.5529 20.8936 23.5742 20.9077 23.5742H21.9721C22.0074 23.5742 22.0285 23.5955 22.0285 23.631V23.9858C22.0285 24.0213 22.0074 24.0426 21.9721 24.0426H20.9077C20.9077 24.0426 20.8865 24.0497 20.8865 24.0639V25.2916C20.8865 25.2916 20.8936 25.3129 20.9077 25.3129H22.522C22.5572 25.3129 22.5784 25.3342 22.5784 25.3697V25.7246C22.5784 25.76 22.5572 25.7813 22.522 25.7813H20.4001C20.3649 25.7813 20.3438 25.76 20.3438 25.7246V21.9064C20.3438 21.8709 20.3649 21.8496 20.4001 21.8496H22.522C22.5572 21.8496 22.5784 21.8709 22.5784 21.9064V22.2612C22.5784 22.2967 22.5572 22.318 22.522 22.318Z" fill="white"/>
<path d="M24.0323 25.7316L23.0312 21.9135V21.8993C23.0312 21.8993 23.0454 21.8567 23.0806 21.8567H23.5388C23.5741 21.8567 23.5952 21.8709 23.6022 21.9064L24.3283 24.9155C24.3283 24.9155 24.3354 24.9297 24.3424 24.9297C24.3495 24.9297 24.3495 24.9297 24.3565 24.9155L25.0826 21.9064C25.0826 21.9064 25.1108 21.8567 25.1461 21.8567H25.5831C25.5831 21.8567 25.6184 21.8567 25.6254 21.8709C25.6325 21.8851 25.6395 21.8993 25.6325 21.9135L24.6244 25.7316C24.6244 25.7316 24.5962 25.7813 24.561 25.7813H24.0957C24.0957 25.7813 24.0393 25.7671 24.0323 25.7316Z" fill="white"/>
<path d="M28.348 22.318H26.7337C26.7337 22.318 26.7125 22.3251 26.7125 22.3393V23.5529C26.7125 23.5529 26.7196 23.5742 26.7337 23.5742H27.7981C27.8334 23.5742 27.8545 23.5955 27.8545 23.631V23.9858C27.8545 24.0213 27.8334 24.0426 27.7981 24.0426H26.7337C26.7337 24.0426 26.7125 24.0497 26.7125 24.0639V25.2916C26.7125 25.2916 26.7196 25.3129 26.7337 25.3129H28.348C28.3832 25.3129 28.4044 25.3342 28.4044 25.3697V25.7246C28.4044 25.76 28.3832 25.7813 28.348 25.7813H26.2332C26.1979 25.7813 26.1768 25.76 26.1768 25.7246V21.9064C26.1768 21.8709 26.1979 21.8496 26.2332 21.8496H28.348C28.3832 21.8496 28.4044 21.8709 28.4044 21.9064V22.2612C28.4044 22.2967 28.3832 22.318 28.348 22.318Z" fill="white"/>
<path d="M30.86 25.7317L30.2114 24.0568C30.2114 24.0568 30.1973 24.0426 30.1903 24.0426H29.5911C29.5911 24.0426 29.5699 24.0497 29.5699 24.0639V25.7175C29.5699 25.753 29.5488 25.7743 29.5135 25.7743H29.0906C29.0553 25.7743 29.0342 25.753 29.0342 25.7175V21.8993C29.0342 21.8638 29.0553 21.8425 29.0906 21.8425H30.3383C30.6485 21.8425 30.9023 21.9419 31.0926 22.1477C31.2829 22.3535 31.3746 22.6232 31.3746 22.9568C31.3746 23.2051 31.3182 23.4252 31.1983 23.6026C31.0855 23.78 30.9234 23.9078 30.726 23.9716C30.7119 23.9716 30.7119 23.9858 30.7119 24L31.3887 25.7033V25.7246C31.3887 25.7246 31.3746 25.7672 31.3464 25.7672H30.9093C30.9093 25.7672 30.86 25.753 30.8459 25.7246L30.86 25.7317ZM29.5699 22.3393V23.5955C29.5699 23.5955 29.577 23.6168 29.5911 23.6168H30.2678C30.437 23.6168 30.578 23.56 30.6837 23.4394C30.7895 23.3187 30.8459 23.1626 30.8459 22.9709C30.8459 22.7793 30.7965 22.6161 30.6908 22.4955C30.585 22.3748 30.4441 22.318 30.2749 22.318H29.5981C29.5981 22.318 29.577 22.3251 29.577 22.3393H29.5699Z" fill="white"/>
<path d="M32.673 25.7175V24.1206C32.673 24.1206 32.673 24.0994 32.673 24.0923L31.7002 21.9135V21.8922C31.7002 21.8922 31.7143 21.8496 31.7425 21.8496H32.1936C32.1936 21.8496 32.243 21.8638 32.2571 21.8922L32.9268 23.489C32.9268 23.489 32.9338 23.5032 32.9409 23.5032C32.9479 23.5032 32.955 23.5032 32.955 23.489L33.6176 21.8922C33.6176 21.8922 33.6458 21.8496 33.6811 21.8496H34.1393C34.1393 21.8496 34.1745 21.8496 34.1816 21.8709C34.1886 21.8851 34.1886 21.8993 34.1816 21.9206L33.2088 24.0994C33.2088 24.0994 33.2088 24.1135 33.2088 24.1277V25.7246C33.2088 25.76 33.1876 25.7813 33.1524 25.7813H32.7364C32.7012 25.7813 32.6801 25.76 32.6801 25.7246L32.673 25.7175Z" fill="white"/>
<path d="M37.0096 21.9064V22.2683C37.0096 22.3038 36.9885 22.3251 36.9532 22.3251H36.0579C36.0579 22.3251 36.0368 22.3322 36.0368 22.3464V25.7246C36.0368 25.76 36.0156 25.7813 35.9804 25.7813H35.5574C35.5222 25.7813 35.501 25.76 35.501 25.7246V22.3464C35.501 22.3464 35.494 22.3251 35.4799 22.3251H34.6199C34.5846 22.3251 34.5635 22.3038 34.5635 22.2683V21.9064C34.5635 21.8709 34.5846 21.8496 34.6199 21.8496H36.9532C36.9885 21.8496 37.0096 21.8709 37.0096 21.9064Z" fill="white"/>
<path d="M39.4563 21.8496H39.8793C39.9145 21.8496 39.9357 21.8709 39.9357 21.9064V25.7246C39.9357 25.76 39.9145 25.7813 39.8793 25.7813H39.4563C39.4211 25.7813 39.3999 25.76 39.3999 25.7246V24.0639C39.3999 24.0639 39.3929 24.0426 39.3788 24.0426H38.1663C38.1663 24.0426 38.1451 24.0497 38.1451 24.0639V25.7246C38.1451 25.76 38.124 25.7813 38.0887 25.7813H37.6658C37.6305 25.7813 37.6094 25.76 37.6094 25.7246V21.9064C37.6094 21.8709 37.6305 21.8496 37.6658 21.8496H38.0887C38.124 21.8496 38.1451 21.8709 38.1451 21.9064V23.5529C38.1451 23.5529 38.1522 23.5742 38.1663 23.5742H39.3788C39.3788 23.5742 39.3999 23.5671 39.3999 23.5529V21.9064C39.3999 21.8709 39.4211 21.8496 39.4563 21.8496Z" fill="white"/>
<path d="M40.7207 25.7246V21.9064C40.7207 21.8709 40.7418 21.8496 40.7771 21.8496H41.2001C41.2353 21.8496 41.2565 21.8709 41.2565 21.9064V25.7246C41.2565 25.76 41.2353 25.7813 41.2001 25.7813H40.7771C40.7418 25.7813 40.7207 25.76 40.7207 25.7246Z" fill="white"/>
<path d="M44.0477 21.8496H44.4707C44.5059 21.8496 44.5271 21.8709 44.5271 21.9064V25.7246C44.5271 25.7601 44.5059 25.7814 44.4707 25.7814H44.0266C44.0266 25.7814 43.9702 25.7672 43.9561 25.7388L42.6096 23.0206C42.6096 23.0206 42.5955 23.0064 42.5885 23.0064C42.5885 23.0064 42.5814 23.0064 42.5814 23.0206V25.7175C42.5814 25.753 42.5673 25.7743 42.5321 25.7743H42.1091C42.0739 25.7743 42.0527 25.753 42.0527 25.7175V21.8993C42.0527 21.8638 42.0739 21.8425 42.1091 21.8425H42.5532C42.5532 21.8425 42.6096 21.8567 42.6167 21.878L43.9561 24.6033C43.9561 24.6033 43.9702 24.6174 43.9772 24.6174C43.9772 24.6174 43.9843 24.6174 43.9843 24.6033V21.9064C43.9843 21.8709 44.0054 21.8496 44.0407 21.8496H44.0477Z" fill="white"/>
<path d="M45.5665 25.5115C45.3479 25.3057 45.2422 25.0289 45.2422 24.6883V22.9353C45.2422 22.5947 45.3479 22.3179 45.5665 22.1121C45.785 21.9063 46.067 21.7998 46.4194 21.7998C46.6521 21.7998 46.8565 21.8424 47.0398 21.9346C47.216 22.0269 47.357 22.1547 47.4557 22.325C47.5544 22.4953 47.6037 22.6869 47.6037 22.8998V23.0489C47.6037 23.0844 47.5826 23.1056 47.5473 23.1056H47.1244C47.0891 23.1056 47.068 23.0844 47.068 23.0489V22.8998C47.068 22.7153 47.0116 22.5592 46.8917 22.4456C46.7719 22.3321 46.6168 22.2682 46.4194 22.2682C46.222 22.2682 46.067 22.3321 45.9542 22.4527C45.8343 22.5734 45.7779 22.7295 45.7779 22.9282V24.7025C45.7779 24.8941 45.8414 25.0573 45.9612 25.178C46.0811 25.2986 46.2432 25.3625 46.4406 25.3625C46.638 25.3625 46.786 25.3057 46.9058 25.1922C47.0186 25.0786 47.0821 24.9296 47.0821 24.738V24.2128C47.0821 24.2128 47.075 24.1915 47.0609 24.1915H46.4758C46.4406 24.1915 46.4194 24.1702 46.4194 24.1347V23.787C46.4194 23.7515 46.4406 23.7302 46.4758 23.7302H47.5614C47.5967 23.7302 47.6178 23.7515 47.6178 23.787V24.6599C47.6178 25.0218 47.5121 25.3057 47.3006 25.5115C47.0891 25.7173 46.8001 25.8167 46.4406 25.8167C46.0811 25.8167 45.8061 25.7102 45.5876 25.5044L45.5665 25.5115Z" fill="white"/>
<path d="M51.6197 21.8494H52.0427C52.078 21.8494 52.0991 21.8707 52.0991 21.9061V25.7243C52.0991 25.7598 52.078 25.7811 52.0427 25.7811H51.6197C51.5845 25.7811 51.5634 25.7598 51.5634 25.7243V22.8926C51.5634 22.8926 51.5633 22.8784 51.5493 22.8713C51.5352 22.8642 51.5352 22.8713 51.5352 22.8855L50.8725 23.9927C50.8725 23.9927 50.8302 24.0352 50.802 24.0352H50.7104C50.7104 24.0352 50.661 24.021 50.6399 23.9927L49.9702 22.8997C49.9702 22.8997 49.9632 22.8855 49.9561 22.8855C49.9491 22.8855 49.942 22.8926 49.942 22.9068V25.7243C49.942 25.7598 49.9209 25.7811 49.8856 25.7811H49.4626C49.4274 25.7811 49.4062 25.7598 49.4062 25.7243V21.9061C49.4062 21.8707 49.4274 21.8494 49.4626 21.8494H49.8856C49.8856 21.8494 49.935 21.8636 49.9561 21.8848L50.7386 23.1552C50.7386 23.1552 50.7456 23.1552 50.7527 23.1552C50.7597 23.1552 50.7668 23.1552 50.7668 23.1552L51.5422 21.8848C51.5422 21.8848 51.5845 21.8494 51.6127 21.8494H51.6197Z" fill="white"/>
<path d="M53.3747 25.6816C53.1914 25.5822 53.0575 25.4403 52.9517 25.2629C52.846 25.0854 52.8037 24.8725 52.8037 24.6383V22.9918C52.8037 22.7576 52.8531 22.5518 52.9517 22.3744C53.0504 22.197 53.1914 22.055 53.3747 21.9557C53.5509 21.8563 53.7624 21.8066 54.0021 21.8066C54.2418 21.8066 54.4533 21.8563 54.6295 21.9557C54.8128 22.055 54.9538 22.197 55.0524 22.3744C55.1511 22.5518 55.2005 22.7576 55.2005 22.9918V24.6383C55.2005 24.8725 55.1511 25.0784 55.0524 25.2629C54.9538 25.4474 54.8128 25.5822 54.6295 25.6816C54.4462 25.781 54.2347 25.8306 54.0021 25.8306C53.7695 25.8306 53.558 25.781 53.3747 25.6816ZM54.4885 25.1706C54.6083 25.0429 54.6718 24.8725 54.6718 24.6667V22.9847C54.6718 22.7718 54.6083 22.6086 54.4885 22.4738C54.3687 22.3389 54.2065 22.275 54.0021 22.275C53.7977 22.275 53.6426 22.3389 53.5227 22.4738C53.4029 22.6015 53.3395 22.7718 53.3395 22.9847V24.6667C53.3395 24.8725 53.4029 25.0429 53.5227 25.1706C53.6426 25.2984 53.8047 25.3622 54.0021 25.3622C54.1995 25.3622 54.3616 25.2984 54.4885 25.1706Z" fill="white"/>
<path d="M57.911 21.8494H58.3339C58.3692 21.8494 58.3903 21.8707 58.3903 21.9062V25.7243C58.3903 25.7598 58.3692 25.7811 58.3339 25.7811H57.8898C57.8898 25.7811 57.8334 25.7669 57.8193 25.7385L56.4729 23.0204C56.4729 23.0204 56.4588 23.0062 56.4518 23.0062C56.4447 23.0062 56.4447 23.0062 56.4447 23.0204V25.7172C56.4447 25.7527 56.4306 25.774 56.3954 25.774H55.9724C55.9372 25.774 55.916 25.7527 55.916 25.7172V21.8991C55.916 21.8636 55.9372 21.8423 55.9724 21.8423H56.4165C56.4165 21.8423 56.4729 21.8565 56.487 21.8778L57.8264 24.603C57.8264 24.603 57.8405 24.6172 57.8475 24.6172C57.8475 24.6172 57.8546 24.6172 57.8546 24.603V21.9062C57.8546 21.8707 57.8757 21.8494 57.911 21.8494Z" fill="white"/>
<path d="M61.3362 22.3178H59.7219C59.7219 22.3178 59.7008 22.3249 59.7008 22.3391V23.5526C59.7008 23.5526 59.7078 23.5739 59.7219 23.5739H60.7864C60.8216 23.5739 60.8428 23.5952 60.8428 23.6307V23.9856C60.8428 24.021 60.8216 24.0423 60.7864 24.0423H59.7219C59.7219 24.0423 59.7008 24.0494 59.7008 24.0636V25.2914C59.7008 25.2914 59.7078 25.3127 59.7219 25.3127H61.3362C61.3715 25.3127 61.3926 25.334 61.3926 25.3695V25.7243C61.3926 25.7598 61.3715 25.7811 61.3362 25.7811H59.2214C59.1862 25.7811 59.165 25.7598 59.165 25.7243V21.9061C59.165 21.8707 59.1862 21.8494 59.2214 21.8494H61.3362C61.3715 21.8494 61.3926 21.8707 61.3926 21.9061V22.261C61.3926 22.2965 61.3715 22.3178 61.3362 22.3178Z" fill="white"/>
<path d="M62.798 25.7172V24.1204C62.798 24.1204 62.798 24.0991 62.798 24.092L61.8252 21.9132V21.8919C61.8252 21.8919 61.8393 21.8494 61.8675 21.8494H62.3187C62.3187 21.8494 62.368 21.8636 62.3821 21.8919L63.0518 23.4888C63.0518 23.4888 63.0588 23.503 63.0659 23.503C63.0729 23.503 63.08 23.503 63.08 23.4888L63.7426 21.8919C63.7426 21.8919 63.7708 21.8494 63.8061 21.8494H64.2643C64.2643 21.8494 64.2995 21.8494 64.3066 21.8707C64.3136 21.8849 64.3136 21.899 64.3066 21.9203L63.3338 24.0991C63.3338 24.0991 63.3338 24.1133 63.3338 24.1275V25.7243C63.3338 25.7598 63.3126 25.7811 63.2774 25.7811H62.8615C62.8262 25.7811 62.8051 25.7598 62.8051 25.7243L62.798 25.7172Z" fill="white"/>
<path d="M27.3226 5.71069H28.81C28.9369 5.71069 29.0074 5.77457 29.0074 5.90941V19.2872C29.0074 19.4221 28.944 19.4859 28.81 19.4859H27.2451C27.1252 19.4859 27.0477 19.4434 27.0124 19.3511L22.3035 9.81275C22.3035 9.81275 22.2541 9.77726 22.233 9.77726C22.2118 9.77726 22.2048 9.79856 22.2048 9.83404L22.2259 19.2943C22.2259 19.4292 22.1625 19.493 22.0285 19.493H20.5411C20.4072 19.493 20.3438 19.4292 20.3438 19.2943V5.90941C20.3438 5.78166 20.4072 5.71069 20.5411 5.71069H22.1061C22.2259 5.71069 22.3035 5.76037 22.3387 5.84554L27.0265 15.3839C27.0265 15.3839 27.0759 15.4194 27.097 15.4194C27.1182 15.4194 27.1252 15.3981 27.1252 15.3626V5.90941C27.1252 5.78166 27.1887 5.71069 27.3226 5.71069Z" fill="white"/>
<path d="M38.4413 19.3014L37.8562 17.0233C37.8421 16.9807 37.8069 16.9665 37.7575 16.9665H33.4433C33.3799 16.9665 33.3446 16.9878 33.3446 17.0233L32.7807 19.3014C32.7666 19.4221 32.6961 19.4788 32.5621 19.4788H31.0395C30.976 19.4788 30.9267 19.4575 30.8915 19.4221C30.8562 19.3795 30.8492 19.3298 30.8633 19.2659L34.4796 5.88812C34.5078 5.76747 34.5783 5.71069 34.6981 5.71069H36.5309C36.6508 5.71069 36.7213 5.76747 36.7495 5.88812L40.3869 19.2659L40.4081 19.3227C40.4081 19.4292 40.3446 19.4788 40.2107 19.4788H38.6669C38.547 19.4788 38.4765 19.4221 38.4483 19.3014H38.4413ZM33.7605 15.4336C33.7605 15.4336 33.8028 15.4619 33.831 15.4619H37.3698C37.3698 15.4619 37.4191 15.4549 37.4403 15.4336C37.4614 15.4123 37.4614 15.3981 37.4473 15.3839L35.6286 8.26561C35.6286 8.26561 35.6004 8.23012 35.5863 8.23012C35.5722 8.23012 35.5581 8.24432 35.5511 8.26561L33.7535 15.3839C33.7535 15.3839 33.7464 15.4123 33.7605 15.4336Z" fill="white"/>
<path d="M42.4064 18.5422C41.6521 17.8112 41.2715 16.8531 41.2715 15.6608V9.52192C41.2715 8.32963 41.6521 7.37153 42.4064 6.64054C43.1607 5.90955 44.1547 5.54761 45.3954 5.54761C46.2131 5.54761 46.9392 5.71084 47.5666 6.0302C48.1939 6.34957 48.6804 6.81087 49.0258 7.39992C49.3712 7.98897 49.5404 8.65609 49.5404 9.40837V9.94064C49.5404 10.0755 49.4769 10.1394 49.343 10.1394H47.8556C47.7216 10.1394 47.6582 10.0755 47.6582 9.94064V9.40837C47.6582 8.75544 47.4538 8.21607 47.0449 7.80445C46.636 7.39282 46.0862 7.18701 45.3954 7.18701C44.7045 7.18701 44.1688 7.39992 43.7529 7.82574C43.3369 8.25156 43.1255 8.80512 43.1255 9.48643V15.7034C43.1255 16.3847 43.3369 16.9383 43.7599 17.3641C44.1829 17.7899 44.7398 18.0028 45.4306 18.0028C46.1214 18.0028 46.6501 17.8041 47.0519 17.4138C47.4538 17.0234 47.6582 16.4912 47.6582 15.8169V13.9859C47.6582 13.9362 47.63 13.9079 47.5807 13.9079H45.5293C45.3954 13.9079 45.3319 13.844 45.3319 13.7091V12.4885C45.3319 12.3607 45.3954 12.2897 45.5293 12.2897H49.3359C49.4628 12.2897 49.5333 12.3536 49.5333 12.4885V15.5544C49.5333 16.8247 49.1597 17.8254 48.4125 18.5422C47.6652 19.259 46.6572 19.6209 45.3954 19.6209C44.1335 19.6209 43.1607 19.259 42.4064 18.528V18.5422Z" fill="white"/>
<path d="M58.171 19.3014L57.5859 17.0233C57.5718 16.9807 57.5436 16.9665 57.4872 16.9665H53.166C53.1025 16.9665 53.0673 16.9878 53.0673 17.0233L52.5033 19.3014C52.4892 19.4221 52.4187 19.4788 52.2848 19.4788H50.7621C50.6987 19.4788 50.6494 19.4575 50.6141 19.4221C50.5789 19.3795 50.5718 19.3298 50.5859 19.2659L54.2022 5.88812C54.2304 5.76747 54.3009 5.71069 54.4207 5.71069H56.2606C56.3805 5.71069 56.451 5.76747 56.4721 5.88812L60.1096 19.2659L60.1307 19.3227C60.1307 19.4292 60.0673 19.4788 59.9333 19.4788H58.3895C58.2697 19.4788 58.1992 19.4221 58.171 19.3014ZM53.4902 15.4336C53.4902 15.4336 53.5325 15.4619 53.5607 15.4619H57.0995C57.0995 15.4619 57.1488 15.4549 57.17 15.4336C57.1911 15.4123 57.1911 15.3981 57.177 15.3839L55.3583 8.26561C55.3583 8.26561 55.3301 8.23012 55.316 8.23012C55.3019 8.23012 55.2878 8.24432 55.2808 8.26561L53.4832 15.3839C53.4832 15.3839 53.4761 15.4123 53.4902 15.4336Z" fill="white"/>
<path d="M11.1591 16.9524L7.47936 17.1937L10.6163 8.35791L1.02216 9.81279L0 19.6847L2.29104 19.5924L1.86808 30.8553L11.1591 16.9524Z" fill="#EE3142"/>
<path d="M1.03027 8.99662L10.4975 7.71916L6.03531 5.62555C6.03531 5.62555 6.60631 1.94932 3.34951 0.678955L2.95475 1.92093C2.95475 1.92093 5.0625 2.37513 4.76643 5.71781L1.03027 8.99662Z" fill="#EE3142"/>
</g>
<defs>
<clipPath id="clip0_4523_85441">
<rect width="72.3192" height="30.1764" fill="white" transform="translate(0 0.678955)"/>
</clipPath>
</defs>
</svg>
