<?xml version="1.0" encoding="UTF-8"?>
<svg id="Layer_1" xmlns="http://www.w3.org/2000/svg" xmlns:xlink="http://www.w3.org/1999/xlink" version="1.1" viewBox="0 0 204 70">
  <!-- Generator: Adobe Illustrator 29.2.1, SVG Export Plug-In . SVG Version: 2.1.0 Build 116)  -->
  <defs>
    <style>
      .st0 {
        fill: none;
      }

      .st1 {
        fill: #0c2780;
      }

      .st2 {
        clip-path: url(#clippath-1);
      }

      .st3 {
        fill: #7d7d7d;
      }

      .st4 {
        fill: #fff;
      }

      .st5 {
        clip-path: url(#clippath);
      }
    </style>
    <clipPath id="clippath">
      <rect class="st0" x="31.255" width="141.489" height="70"/>
    </clipPath>
    <clipPath id="clippath-1">
      <rect class="st0" x="47.638" y="14.149" width="107.979" height="25.319"/>
    </clipPath>
  </defs>
  <g class="st5">
    <g>
      <rect class="st4" x="31.255" width="141.489" height="70"/>
      <path class="st3" d="M48.342,51.985c-.568-.284-.852-.732-.852-1.343,0-.295.074-.565.221-.811s.369-.44.664-.582c.295-.147.655-.221,1.081-.221.421,0,.778.074,1.073.221.3.142.524.336.672.582s.221.516.221.811c0,.306-.079.576-.238.811-.153.229-.358.407-.614.532.311.115.557.303.737.565.18.257.27.56.27.909,0,.355-.09.669-.27.942-.18.273-.431.483-.754.631-.322.147-.688.221-1.098.221s-.775-.074-1.098-.221c-.317-.147-.565-.358-.745-.631-.18-.273-.27-.587-.27-.942s.09-.661.27-.917c.18-.257.423-.442.729-.557ZM50.529,50.757c0-.306-.096-.541-.287-.704-.191-.164-.453-.246-.786-.246-.328,0-.587.082-.778.246-.191.164-.287.401-.287.713,0,.273.098.497.295.672.202.169.459.254.77.254s.568-.087.77-.262c.202-.175.303-.399.303-.672ZM49.456,52.395c-.36,0-.655.09-.885.27-.224.175-.336.429-.336.762,0,.311.109.565.328.762.218.191.516.287.893.287.371,0,.664-.098.876-.295.218-.197.328-.448.328-.754,0-.328-.112-.582-.336-.762-.218-.18-.508-.27-.868-.27ZM52.558,52.043c0-.945.158-1.682.475-2.212.322-.535.874-.803,1.655-.803s1.33.268,1.646.803c.322.53.483,1.267.483,2.212,0,.956-.161,1.704-.483,2.244-.317.535-.866.803-1.646.803s-1.333-.268-1.655-.803c-.317-.541-.475-1.289-.475-2.244ZM55.9,52.043c0-.442-.03-.816-.09-1.122-.055-.306-.169-.554-.344-.745-.175-.197-.434-.295-.778-.295s-.603.098-.778.295c-.175.191-.292.44-.352.745-.055.306-.082.68-.082,1.122,0,.459.027.844.082,1.155.055.311.169.562.344.754.18.191.442.287.786.287s.603-.096.778-.287c.18-.191.298-.442.352-.754.055-.311.082-.696.082-1.155ZM57.658,50.576c0-.399.115-.71.344-.934.235-.229.535-.344.901-.344s.664.115.893.344c.235.224.352.535.352.934s-.117.713-.352.942c-.229.229-.527.344-.893.344s-.666-.115-.901-.344c-.229-.229-.344-.543-.344-.942ZM62.655,49.405l-3.268,5.701h-.917l3.268-5.701h.917ZM58.904,49.864c-.344,0-.516.238-.516.713,0,.481.172.721.516.721.164,0,.289-.057.377-.172.093-.12.139-.303.139-.549,0-.475-.172-.713-.516-.713ZM60.992,53.927c0-.399.115-.71.344-.934.235-.229.535-.344.901-.344.36,0,.655.115.885.344.235.224.352.535.352.934s-.117.713-.352.942c-.229.229-.524.344-.885.344-.366,0-.666-.115-.901-.344-.229-.229-.344-.543-.344-.942ZM62.229,53.214c-.344,0-.516.238-.516.713s.172.713.516.713.516-.238.516-.713-.172-.713-.516-.713ZM68.518,55.18c-.426,0-.811-.096-1.155-.287-.344-.197-.614-.47-.811-.819-.197-.355-.295-.765-.295-1.229,0-.459.101-.866.303-1.221.202-.355.478-.628.827-.819.349-.191.74-.287,1.171-.287s.822.096,1.171.287c.349.191.625.464.827.819.202.355.303.762.303,1.221s-.104.866-.311,1.221c-.208.355-.491.631-.852.827-.355.191-.748.287-1.18.287ZM68.518,54.369c.24,0,.464-.057.672-.172.213-.115.385-.287.516-.516.131-.229.197-.508.197-.836s-.063-.603-.188-.827c-.126-.229-.292-.401-.5-.516-.208-.115-.431-.172-.672-.172s-.464.057-.672.172c-.202.115-.363.287-.483.516-.12.224-.18.5-.18.827,0,.486.123.863.369,1.13.251.262.565.393.942.393ZM73.676,51.355h-.836v3.752h-.942v-3.752h-.532v-.762h.532v-.319c0-.519.137-.896.41-1.13.279-.24.713-.36,1.302-.36v.778c-.284,0-.483.055-.598.164-.115.104-.172.287-.172.549v.319h.836v.762ZM77.565,51.248c.137-.229.317-.407.541-.532.229-.131.5-.197.811-.197v.967h-.238c-.366,0-.644.093-.836.279-.186.186-.279.508-.279.967v2.376h-.934v-4.514h.934v.655ZM83.912,52.739c0,.169-.011.322-.033.459h-3.449c.027.36.161.65.401.868.24.218.535.328.885.328.502,0,.857-.21,1.065-.631h1.008c-.137.415-.385.756-.745,1.024-.355.262-.797.393-1.327.393-.431,0-.819-.096-1.163-.287-.339-.197-.606-.47-.803-.819-.191-.355-.287-.765-.287-1.229s.093-.871.279-1.221c.191-.355.456-.628.795-.819.344-.191.737-.287,1.18-.287.426,0,.805.093,1.139.279.333.186.592.448.778.786.186.333.279.718.279,1.155ZM82.937,52.444c-.006-.344-.128-.62-.369-.827-.24-.208-.538-.311-.893-.311-.322,0-.598.104-.827.311-.229.202-.366.478-.41.827h2.498ZM85.921,51.355v2.498c0,.169.038.292.115.369.082.071.218.106.41.106h.573v.778h-.737c-.42,0-.743-.098-.967-.295-.224-.197-.336-.516-.336-.958v-2.498h-.532v-.762h.532v-1.122h.942v1.122h1.098v.762h-1.098ZM87.568,52.829c0-.453.093-.855.279-1.204.191-.349.448-.62.77-.811.328-.197.688-.295,1.081-.295.355,0,.664.071.926.213.268.137.481.309.639.516v-.655h.942v4.514h-.942v-.672c-.158.213-.374.39-.647.532-.273.142-.584.213-.934.213-.388,0-.743-.098-1.065-.295-.322-.202-.579-.481-.77-.836-.186-.36-.279-.767-.279-1.221ZM91.262,52.846c0-.311-.066-.582-.197-.811-.126-.229-.292-.404-.5-.524s-.431-.18-.672-.18-.464.06-.672.18c-.208.115-.377.287-.508.516-.126.224-.188.491-.188.803s.063.584.188.819c.131.235.3.415.508.541.213.12.437.18.672.18.24,0,.464-.06.672-.18s.374-.295.5-.524c.131-.235.197-.508.197-.819ZM93.906,49.995c-.169,0-.311-.057-.426-.172s-.172-.257-.172-.426.057-.311.172-.426.257-.172.426-.172c.164,0,.303.057.418.172s.172.257.172.426-.057.311-.172.426-.254.172-.418.172ZM94.364,50.593v4.514h-.934v-4.514h.934ZM96.524,49.045v6.062h-.934v-6.062h.934ZM99.567,52.248c0-.557.128-1.057.385-1.499.262-.442.614-.786,1.057-1.032.448-.251.937-.377,1.466-.377.606,0,1.144.15,1.614.451.475.295.819.715,1.032,1.261h-1.122c-.147-.3-.352-.524-.614-.672-.262-.147-.565-.221-.909-.221-.377,0-.713.085-1.008.254-.295.169-.527.412-.696.729-.164.317-.246.685-.246,1.106s.082.789.246,1.106c.169.317.401.562.696.737.295.169.631.254,1.008.254.344,0,.647-.074.909-.221.262-.147.467-.371.614-.672h1.122c-.213.546-.557.967-1.032,1.261-.47.295-1.008.442-1.614.442-.535,0-1.024-.123-1.466-.369-.442-.251-.795-.598-1.057-1.04-.257-.442-.385-.942-.385-1.499ZM109.564,49.413v.762h-2.416v1.679h1.884v.762h-1.884v2.49h-.934v-5.693h3.35ZM112.289,49.413c.606,0,1.136.117,1.589.352.459.229.811.562,1.057.999.251.431.377.937.377,1.515s-.126,1.081-.377,1.507c-.246.426-.598.754-1.057.983-.454.224-.983.336-1.589.336h-1.859v-5.693h1.859ZM112.289,54.345c.666,0,1.177-.18,1.532-.541.354-.36.532-.868.532-1.524,0-.661-.178-1.177-.532-1.548-.355-.371-.866-.557-1.532-.557h-.926v4.169h.926ZM118.054,52.829c0-.453.093-.855.279-1.204.191-.349.448-.62.77-.811.328-.197.688-.295,1.081-.295.355,0,.664.071.926.213.267.137.48.309.639.516v-.655h.942v4.514h-.942v-.672c-.159.213-.374.39-.647.532-.273.142-.585.213-.934.213-.388,0-.742-.098-1.065-.295-.322-.202-.579-.481-.77-.836-.185-.36-.279-.767-.279-1.221ZM121.748,52.846c0-.311-.066-.582-.197-.811-.126-.229-.292-.404-.5-.524s-.431-.18-.672-.18-.464.06-.672.18c-.208.115-.377.287-.508.516-.126.224-.188.491-.188.803s.063.584.188.819c.131.235.3.415.508.541.213.12.437.18.672.18.241,0,.464-.06.672-.18s.374-.295.5-.524c.131-.235.197-.508.197-.819ZM123.605,52.846c0-.464.093-.871.279-1.221.191-.355.454-.628.786-.819s.716-.287,1.147-.287c.546,0,.996.131,1.352.393.36.257.603.625.729,1.106h-1.008c-.082-.224-.213-.399-.393-.524-.18-.126-.407-.188-.68-.188-.382,0-.688.136-.917.41-.224.268-.336.644-.336,1.13s.112.866.336,1.139c.229.273.535.41.917.41.541,0,.898-.238,1.073-.713h1.008c-.131.459-.377.825-.737,1.098-.36.268-.808.401-1.343.401-.431,0-.814-.096-1.147-.287-.333-.197-.595-.47-.786-.819-.185-.355-.279-.765-.279-1.229ZM128.517,52.846c0-.464.092-.871.279-1.221.191-.355.453-.628.786-.819.333-.191.715-.287,1.147-.287.546,0,.996.131,1.352.393.36.257.603.625.729,1.106h-1.008c-.082-.224-.213-.399-.393-.524-.18-.126-.407-.188-.68-.188-.383,0-.688.136-.917.41-.224.268-.336.644-.336,1.13s.112.866.336,1.139c.229.273.535.41.917.41.541,0,.898-.238,1.073-.713h1.008c-.131.459-.377.825-.737,1.098-.36.268-.809.401-1.343.401-.432,0-.814-.096-1.147-.287-.334-.197-.596-.47-.786-.819-.186-.355-.279-.765-.279-1.229ZM135.698,55.18c-.426,0-.811-.096-1.155-.287-.344-.197-.614-.47-.811-.819-.197-.355-.295-.765-.295-1.229,0-.459.101-.866.303-1.221.203-.355.478-.628.827-.819.35-.191.74-.287,1.171-.287s.822.096,1.171.287c.35.191.626.464.827.819.203.355.303.762.303,1.221s-.104.866-.311,1.221c-.207.355-.491.631-.852.827-.354.191-.748.287-1.18.287ZM135.698,54.369c.241,0,.465-.057.672-.172.213-.115.385-.287.516-.516.131-.229.197-.508.197-.836s-.063-.603-.188-.827c-.125-.229-.292-.401-.5-.516-.207-.115-.431-.172-.672-.172s-.464.057-.672.172c-.202.115-.363.287-.483.516-.12.224-.18.5-.18.827,0,.486.123.863.369,1.13.252.262.565.393.942.393ZM143.051,50.593v4.514h-.934v-.532c-.147.186-.341.333-.582.442-.235.104-.486.156-.754.156-.355,0-.675-.074-.958-.221-.279-.147-.5-.366-.664-.655-.159-.289-.238-.639-.238-1.049v-2.654h.926v2.515c0,.404.101.715.303.934.202.213.478.319.827.319s.626-.106.827-.319c.208-.218.311-.53.311-.934v-2.515h.934ZM146.561,50.519c.354,0,.672.074.95.221.284.147.505.366.664.655.158.289.238.639.238,1.049v2.662h-.926v-2.523c0-.404-.101-.713-.303-.926-.203-.218-.478-.328-.827-.328s-.629.109-.836.328c-.203.213-.303.521-.303.926v2.523h-.934v-4.514h.934v.516c.153-.186.346-.33.582-.434.24-.104.494-.156.762-.156ZM150.692,51.355v2.498c0,.169.038.292.115.369.082.071.218.106.41.106h.573v.778h-.737c-.421,0-.742-.098-.967-.295s-.336-.516-.336-.958v-2.498h-.532v-.762h.532v-1.122h.942v1.122h1.098v.762h-1.098ZM154.289,55.18c-.355,0-.675-.063-.958-.188-.279-.131-.5-.306-.664-.524-.164-.224-.251-.472-.262-.745h.967c.016.191.106.352.27.483.169.126.38.188.631.188.262,0,.464-.049.606-.147.147-.104.221-.235.221-.393,0-.169-.082-.295-.246-.377-.159-.082-.413-.172-.762-.27-.339-.093-.614-.183-.827-.27-.213-.087-.398-.221-.557-.401-.153-.18-.229-.418-.229-.713,0-.24.071-.459.213-.655.142-.202.344-.36.606-.475.267-.115.573-.172.917-.172.513,0,.926.131,1.237.393.316.257.486.609.508,1.057h-.934c-.016-.202-.098-.363-.246-.483s-.347-.18-.598-.18c-.246,0-.434.046-.565.139s-.197.216-.197.369c0,.12.044.221.131.303.087.082.194.147.319.197.126.044.311.101.557.172.328.087.595.177.803.27.213.087.396.218.549.393.153.175.232.407.238.696,0,.257-.071.486-.213.688-.142.202-.344.36-.606.475-.257.115-.56.172-.909.172ZM79.265,57.981v6.062h-.934v-6.062h.934ZM82.449,64.116c-.426,0-.811-.096-1.155-.287-.344-.197-.614-.47-.811-.819-.197-.355-.295-.765-.295-1.229,0-.459.101-.866.303-1.221.202-.355.478-.628.827-.819.349-.191.74-.287,1.171-.287s.822.096,1.171.287.625.464.827.819.303.762.303,1.221-.104.866-.311,1.221-.491.631-.852.827c-.355.191-.748.287-1.18.287ZM82.449,63.305c.24,0,.464-.057.672-.172.213-.115.385-.287.516-.516.131-.229.197-.508.197-.836s-.063-.603-.188-.827c-.126-.229-.292-.401-.5-.516-.208-.115-.431-.172-.672-.172s-.464.057-.672.172c-.202.115-.363.287-.483.516-.12.224-.18.5-.18.827,0,.486.123.863.369,1.13.251.262.565.393.942.393ZM87.353,64.116c-.355,0-.674-.063-.958-.188-.279-.131-.5-.306-.664-.524-.164-.224-.251-.472-.262-.745h.967c.016.191.106.352.27.483.169.126.38.188.631.188.262,0,.464-.049.606-.147.147-.104.221-.235.221-.393,0-.169-.082-.295-.246-.377-.158-.082-.412-.172-.762-.27-.339-.093-.614-.183-.827-.27-.213-.087-.399-.221-.557-.401-.153-.18-.229-.418-.229-.713,0-.24.071-.459.213-.655.142-.202.344-.36.606-.475.268-.115.573-.172.917-.172.513,0,.926.131,1.237.393.317.257.486.609.508,1.057h-.934c-.016-.202-.098-.363-.246-.483s-.347-.18-.598-.18c-.246,0-.434.046-.565.139-.131.093-.197.216-.197.369,0,.12.044.221.131.303.087.082.194.147.319.197.126.044.311.101.557.172.328.087.595.177.803.27.213.087.396.218.549.393.153.175.232.407.238.696,0,.257-.071.486-.213.688-.142.202-.344.36-.606.475-.257.115-.56.172-.909.172ZM94.227,61.675c0,.169-.011.322-.033.459h-3.449c.027.36.161.65.401.868.24.218.535.328.885.328.502,0,.857-.21,1.065-.631h1.008c-.136.415-.385.756-.745,1.024-.355.262-.797.393-1.327.393-.431,0-.819-.096-1.163-.287-.339-.197-.606-.47-.803-.819-.191-.355-.287-.765-.287-1.229s.093-.871.279-1.221c.191-.355.456-.628.795-.819.344-.191.737-.287,1.18-.287.426,0,.806.093,1.139.279.333.186.593.448.778.786.186.333.279.718.279,1.155ZM93.253,61.38c-.005-.344-.128-.62-.369-.827-.24-.208-.538-.311-.893-.311-.322,0-.598.104-.827.311-.229.202-.366.478-.41.827h2.498ZM102.738,59.455c.355,0,.672.074.95.221.284.147.505.366.664.655.164.289.246.639.246,1.049v2.662h-.926v-2.523c0-.404-.101-.713-.303-.926-.202-.218-.478-.328-.827-.328s-.628.109-.836.328c-.202.213-.303.521-.303.926v2.523h-.926v-2.523c0-.404-.101-.713-.303-.926-.202-.218-.478-.328-.827-.328s-.628.109-.836.328c-.202.213-.303.521-.303.926v2.523h-.934v-4.514h.934v.516c.153-.186.347-.33.582-.434.235-.104.486-.156.754-.156.36,0,.683.076.967.229s.502.374.655.664c.137-.273.349-.489.639-.647.289-.164.601-.246.934-.246ZM107.744,64.116c-.426,0-.811-.096-1.155-.287-.344-.197-.614-.47-.811-.819-.197-.355-.295-.765-.295-1.229,0-.459.101-.866.303-1.221.202-.355.477-.628.827-.819.349-.191.739-.287,1.171-.287s.821.096,1.171.287c.349.191.625.464.827.819.202.355.303.762.303,1.221s-.104.866-.311,1.221c-.208.355-.491.631-.852.827-.355.191-.748.287-1.18.287ZM107.744,63.305c.24,0,.464-.057.672-.172.213-.115.385-.287.516-.516.131-.229.197-.508.197-.836s-.063-.603-.188-.827c-.126-.229-.293-.401-.5-.516-.208-.115-.432-.172-.672-.172s-.465.057-.672.172c-.203.115-.363.287-.483.516-.121.224-.18.5-.18.827,0,.486.123.863.369,1.13.251.262.565.393.942.393ZM113.286,59.455c.355,0,.672.074.95.221.284.147.506.366.664.655.159.289.238.639.238,1.049v2.662h-.926v-2.523c0-.404-.101-.713-.303-.926-.202-.218-.477-.328-.827-.328s-.628.109-.836.328c-.202.213-.303.521-.303.926v2.523h-.934v-4.514h.934v.516c.153-.186.347-.33.582-.434.241-.104.494-.156.762-.156ZM120.466,61.675c0,.169-.011.322-.033.459h-3.449c.028.36.161.65.401.868.241.218.535.328.885.328.503,0,.857-.21,1.065-.631h1.008c-.136.415-.385.756-.745,1.024-.355.262-.798.393-1.327.393-.431,0-.819-.096-1.163-.287-.339-.197-.606-.47-.803-.819-.191-.355-.287-.765-.287-1.229s.093-.871.279-1.221c.191-.355.456-.628.795-.819.344-.191.737-.287,1.18-.287.426,0,.806.093,1.139.279.333.186.593.448.778.786.185.333.279.718.279,1.155ZM119.491,61.38c-.005-.344-.128-.62-.369-.827-.241-.208-.538-.311-.893-.311-.322,0-.598.104-.827.311-.229.202-.366.478-.41.827h2.498ZM125.448,59.529l-2.769,6.635h-.967l.917-2.195-1.778-4.44h1.04l1.27,3.44,1.319-3.44h.967Z"/>
      <g class="st2">
        <g>
          <path class="st1" d="M60.746,22.879h-13.108v16.589h5.777v-6.112h7.332c1.596,0,2.889-1.271,2.889-2.838v-4.8c0-1.568-1.293-2.838-2.889-2.838ZM57.859,30.082c0,.362-.298.654-.666.654h-3.778v-5.237h3.776c.368,0,.666.293.666.654v3.928h.002Z"/>
          <path class="st1" d="M65.413,22.879v12.004c0,1.922,1.013,3.611,2.543,4.583h3.234v-16.587h-5.777Z"/>
          <path class="st1" d="M82.743,26.808v9.385c0,.362-.298.655-.666.655h-2.666c-.368,0-.666-.293-.666-.655v-9.385h-5.777v9.822c0,1.568,1.293,2.838,2.889,2.838h12.665v-12.659h-5.778Z"/>
          <path class="st1" d="M93.185,26.808c-1.596,0-2.889,1.271-2.889,2.838v3.055c0,1.568,1.293,2.838,2.889,2.838h5.333c.368,0,.666.293.666.655v.436c0,.362-.298.654-.666.654h-7.777v2.182h10.887c1.596,0,2.889-1.27,2.889-2.838v-3.055c0-1.568-1.293-2.838-2.889-2.838h-5.333c-.368,0-.666-.293-.666-.654s.298-.655.666-.655h7.332v-2.618h-10.442Z"/>
          <path class="st1" d="M103.628,24.19h-4.889v-2.62h-3.554v-4.802h3.554v-2.62h4.889v2.62h3.554v4.802h-3.554v2.62Z"/>
          <path class="st1" d="M118.069,29.865h-5.999v-3.057h7.998v-2.618h-13.774v8.294h8.22c.369,0,.666.293.666.654v3.055c0,.362-.298.654-.666.654h-8.22v2.62h11.776c1.596,0,2.889-1.271,2.889-2.838v-3.929c0-1.566-1.293-2.837-2.889-2.837Z"/>
          <path class="st1" d="M135.398,24.19h-9.775c-1.596,0-2.889,1.271-2.889,2.838v9.603c0,1.568,1.294,2.838,2.889,2.838h9.775c1.596,0,2.889-1.271,2.889-2.838v-9.605c0-1.566-1.294-2.837-2.889-2.837ZM132.511,36.194c0,.362-.298.654-.666.654h-2.667c-.368,0-.666-.293-.666-.654v-8.73c0-.362.298-.655.666-.655h2.667c.369,0,.666.293.666.655v8.73Z"/>
          <path class="st1" d="M152.728,24.19h-9.775c-1.596,0-2.889,1.271-2.889,2.838v9.603c0,1.568,1.293,2.838,2.889,2.838h9.775c1.596,0,2.889-1.271,2.889-2.838v-9.605c0-1.566-1.294-2.837-2.889-2.837ZM149.841,36.194c0,.362-.298.654-.666.654h-2.666c-.369,0-.666-.293-.666-.654v-8.73c0-.362.298-.655.666-.655h2.666c.369,0,.666.293.666.655v8.73Z"/>
        </g>
      </g>
    </g>
  </g>
</svg>