<?xml version="1.0" encoding="UTF-8"?>
<svg id="Layer_1" data-name="Layer 1" xmlns="http://www.w3.org/2000/svg" version="1.1" viewBox="0 0 204 70">
  <defs>
    <style>
      .cls-1 {
        fill: #051478;
        stroke-width: 0px;
      }
    </style>
  </defs>
  <path class="cls-1" d="M48.938,38.736c7.387,0,12.786-4.135,12.786-9.755,0-11.381-17.845-7.668-17.845-13.389,0-2.328,2.268-3.693,5.299-3.693,3.312,0,5.038,1.586,5.942,3.372l6.182-1.987c-1.646-4.416-6.182-7.026-11.702-7.026-7.407,0-12.265,4.476-12.265,9.876,0,11,17.724,6.945,17.724,13.228,0,2.208-2.409,3.693-5.922,3.693-3.693,0-6.102-2.027-7.126-5.139l-6.263,2.007c1.445,5.36,6.544,8.812,13.188,8.812ZM151.77,6.278c-9.253,0-16.439,7.306-16.439,16.239s7.186,16.239,16.439,16.239,16.48-7.306,16.48-16.239c-.02-8.952-7.226-16.239-16.48-16.239ZM151.77,12.179c5.5,0,9.675,4.316,9.675,10.317s-4.175,10.317-9.675,10.317c-5.419,0-9.655-4.316-9.655-10.317s4.216-10.317,9.655-10.317ZM86.032,6.76h-5.701l-13.388,31.474h6.865l2.71-6.604h13.188l2.71,6.564,4.316-6.363-10.699-25.071ZM78.766,26.17l4.316-10.639,4.336,10.639h-8.651ZM112.448,21.874l-11.14,16.359h7.286l7.487-11.16,7.487,11.16h7.487l-11.24-16.52,10.176-14.974h-7.266l-6.544,9.755-6.543-9.755h-7.467l10.277,15.135Z"/>
  <path class="cls-1" d="M51.609,63.585v-10.117h3.874c.723,0,1.345.12,1.827.341.482.221.843.542,1.084.943.241.401.361.843.361,1.345,0,.422-.08.763-.241,1.064s-.361.522-.642.703c-.281.181-.562.321-.903.381v.1c.361.02.702.121,1.044.321.341.201.602.482.823.843.221.361.321.803.321,1.325s-.12,1.004-.381,1.405c-.261.422-.642.743-1.144.984s-1.144.361-1.927.361h-4.095ZM53.436,57.764h1.806c.321,0,.602-.06.863-.181.261-.12.462-.281.602-.502.141-.221.221-.482.221-.763,0-.401-.14-.723-.422-.964-.281-.261-.682-.381-1.224-.381h-1.847v2.79h0ZM53.436,62.06h1.967c.662,0,1.144-.12,1.445-.381.301-.261.442-.582.442-.984,0-.301-.08-.562-.221-.823-.141-.241-.361-.442-.642-.582-.281-.141-.602-.201-.984-.201h-2.027v2.971h.02Z"/>
  <path class="cls-1" d="M61.93,63.585v-10.117h6.584v1.525h-4.737v2.75h4.396v1.546h-4.396v2.77h4.777v1.526h-6.624Z"/>
  <path class="cls-1" d="M78.616,53.469h-1.827v10.117h1.827v-10.117Z"/>
  <path class="cls-1" d="M90.504,53.469v10.117h-1.586l-4.757-6.885h-.08v6.885h-1.847v-10.117h1.646l4.757,6.905h.1v-6.905h1.766Z"/>
  <path class="cls-1" d="M94.887,53.469l2.629,7.969h.1l2.63-7.969h2.027l-3.573,10.117h-2.268l-3.573-10.117h2.027Z"/>
  <path class="cls-1" d="M104.805,63.585v-10.117h6.584v1.525h-4.737v2.75h4.396v1.546h-4.396v2.77h4.777v1.526h-6.624Z"/>
  <path class="cls-1" d="M119.974,56.239c-.04-.442-.241-.763-.582-1.004-.341-.241-.783-.361-1.325-.361-.381,0-.702.06-.983.181-.282.12-.482.281-.623.462-.14.201-.221.422-.221.682,0,.221.041.401.141.542.1.161.221.281.401.402.161.1.362.201.562.261.201.08.402.141.623.181l.943.241c.381.08.743.201,1.104.361.361.16.683.341.964.582.281.221.501.502.662.843.161.321.241.703.241,1.144,0,.602-.161,1.124-.462,1.566-.301.442-.742.803-1.305,1.044-.562.261-1.264.381-2.067.381-.783,0-1.465-.12-2.047-.361-.583-.241-1.024-.602-1.345-1.064-.321-.462-.502-1.044-.522-1.706h1.806c.02.361.141.642.322.883.2.241.441.401.742.522.301.12.663.181,1.044.181.401,0,.743-.06,1.044-.181.301-.12.542-.281.702-.502.181-.221.261-.462.261-.763,0-.261-.08-.482-.241-.662-.16-.181-.361-.321-.642-.442-.281-.121-.582-.221-.943-.321l-1.144-.301c-.844-.221-1.486-.542-1.968-.983-.481-.442-.722-1.024-.722-1.746,0-.602.16-1.124.481-1.566.322-.442.763-.803,1.325-1.044.562-.241,1.205-.381,1.907-.381.723,0,1.345.12,1.887.381.542.241.964.602,1.285,1.024.301.442.461.943.481,1.505h-1.786v.02Z"/>
  <path class="cls-1" d="M123.57,54.994v-1.525h8.07v1.525h-3.132v8.591h-1.806v-8.591h-3.132Z"/>
  <path class="cls-1" d="M134.164,63.585v-10.117h6.584v1.525h-4.737v2.75h4.396v1.546h-4.396v2.77h4.777v1.526h-6.624Z"/>
  <path class="cls-1" d="M147.573,63.585h-3.432v-10.117h3.492c1.004,0,1.867.201,2.59.602.722.401,1.284.984,1.666,1.746.381.763.582,1.666.582,2.71,0,1.064-.201,1.967-.582,2.71-.382.763-.944,1.345-1.686,1.746-.723.401-1.606.602-2.63.602ZM145.967,62h1.506c.702,0,1.284-.12,1.766-.381.462-.261.823-.642,1.064-1.164.241-.522.361-1.164.361-1.927,0-.783-.12-1.425-.361-1.927-.241-.522-.582-.903-1.044-1.144-.462-.261-1.044-.381-1.726-.381h-1.566v6.925h0Z"/>
</svg>