<?xml version="1.0" encoding="UTF-8"?>
<svg id="text" xmlns="http://www.w3.org/2000/svg" version="1.1" viewBox="0 0 204 70">
  <defs>
    <style>
      .cls-1 {
        fill: #fa5b35;
      }

      .cls-1, .cls-2 {
        stroke-width: 0px;
      }

      .cls-2 {
        fill: #323232;
      }
    </style>
  </defs>
  <path class="cls-1" d="M16.61,16.871c9.174,0,16.61,7.437,16.61,16.61,0,9.174-7.437,16.61-16.61,16.61C7.436,50.092,0,42.655,0,33.482H0c-.055-9.119,7.293-16.555,16.412-16.61.066,0,.133,0,.199,0ZM8.251,26.48v2.893h16.717v-2.893H8.251ZM11.145,37.268c0-.893.214-1.429.572-1.786.8-.762,2.058-.762,2.858,0,.357.357.572.893.572,1.786v3.215h2.929v-3.215c0-.893.214-1.429.572-1.786.8-.762,2.057-.762,2.858,0,.357.357.572.893.572,1.786v3.215h2.893v-8.466H8.251v8.466h2.893v-3.215Z"/>
  <path class="cls-2" d="M42.791,27.23c0,3.001,4.286,3.608,7.501,5.465,2,1.143,3.644,3.001,3.644,6.144,0,4.501-3.679,7.323-7.751,7.323s-7.001-1.965-8.144-3.215l1.607-3.393h.143c1.619,1.627,3.813,2.55,6.108,2.572,1.75,0,3.644-1.036,3.644-3.072,0-3.036-4.286-3.644-7.501-5.501-2-1.143-3.643-3.001-3.643-6.144,0-4.501,3.715-7.323,7.858-7.323,2.852.006,5.595,1.091,7.68,3.036l-1.608,3.393h-.143c-1.393-1.25-3.143-2.393-5.573-2.393-1.929,0-3.822,1.036-3.822,3.108ZM54.579,31.338h4.215l2.5,7.252h.143l3.536-10.109h2.858l3.715,10.216h.143l3.572-10.216h4.001l-6.108,17.146h-2.786l-3.929-10.788h-.143l-3.786,10.788h-2.858l-5.072-14.289ZM81.012,21.336h4.251v4.108h-4.251v-4.108ZM81.084,28.481h4.108v17.146h-4.108v-17.146ZM94.765,46.163c-2.383.012-4.681-.882-6.43-2.5l1.143-3.072h.143c1.286,1.143,2.929,2.036,4.822,2.036,1.429,0,2.358-.607,2.358-1.679,0-1.107-1.179-1.536-2.643-2-2.358-.75-5.465-1.893-5.465-5.465,0-3.286,2.572-5.537,6.251-5.537,2.079.022,4.091.739,5.715,2.036l-1.143,3.108h-.143c-1.215-.964-2.786-1.607-4.108-1.607-1.607,0-2.536.607-2.536,1.679,0,1.107,1.179,1.536,2.644,2,2.357.75,5.465,1.893,5.465,5.465,0,3.286-2.572,5.537-6.073,5.537h0ZM109.446,46.163c-2.383.012-4.681-.882-6.43-2.5l1.143-3.072h.143c1.286,1.143,2.929,2.036,4.822,2.036,1.429,0,2.358-.607,2.358-1.679,0-1.107-1.179-1.536-2.643-2-2.358-.75-5.465-1.893-5.465-5.465,0-3.286,2.572-5.537,6.251-5.537,2.079.022,4.091.739,5.715,2.036l-1.143,3.108h-.143c-1.214-.964-2.786-1.607-4.108-1.607-1.608,0-2.536.607-2.536,1.679,0,1.107,1.179,1.536,2.644,2,2.357.75,5.465,1.893,5.465,5.465,0,3.286-2.572,5.537-6.073,5.537h0ZM134.415,28.481v24.647h-4.108v-8.752c-1.241,1.134-2.856,1.77-4.537,1.786-4.858,0-7.966-3.751-7.966-8.93,0-4.858,3.322-9.287,8.394-9.287,1.576.026,3.098.579,4.322,1.572h.143v-1.036h3.751ZM130.307,32.946c-.97-.814-2.198-1.257-3.465-1.25-2.929,0-4.822,2.286-4.822,5.501,0,2.893,1.643,5.215,4.572,5.215,1.409.011,2.758-.573,3.715-1.607v-7.859ZM141.988,38.732c0,1.5.25,2.143.679,2.679,1.137,1.302,3.113,1.436,4.416.3.107-.093.207-.193.3-.3.429-.536.679-1.179.679-2.679v-10.252h4.108v9.823c0,2.786-.75,4.537-2.036,5.787-1.412,1.373-3.318,2.12-5.287,2.072-1.867.029-3.669-.692-5.001-2-1.25-1.25-1.965-3.036-1.965-5.858v-9.823h4.108v10.252ZM154.991,37.232c0-5.465,3.715-9.287,8.93-9.287s8.93,3.822,8.93,8.93c0,5.465-3.715,9.288-8.93,9.288-5.215,0-8.93-3.822-8.93-8.93h0ZM163.921,31.695c-2.751,0-4.715,2.322-4.715,5.358s1.965,5.358,4.715,5.358,4.715-2.322,4.715-5.358-1.965-5.358-4.715-5.358ZM186.782,42.269v3.179c-1.166.483-2.417.726-3.679.714-1.822,0-3.179-.536-4.108-1.465-1-1-1.5-2.465-1.5-5.072v-7.573h-3.929v-3.572h3.929v-5.715h4.108v5.715h5.18v3.572h-5.18v8.109c0,.893.179,1.393.464,1.715.5.572,1.322.714,2.215.714.796-.01,1.588-.118,2.358-.321h.143ZM196.855,46.163c-5.001,0-8.752-3.536-8.752-8.93,0-4.929,3.001-9.287,8.323-9.287,4.537,0,7.573,3.608,7.573,8.573v1.357h-11.609c.107,2.679,1.965,4.68,4.68,4.68,1.75,0,3.358-.714,4.822-1.929h.143l1.536,2.858c-1.607,1.715-4.001,2.679-6.716,2.679ZM199.892,34.66c-.04-1.816-1.543-3.255-3.359-3.216-.011,0-.023,0-.034,0-2.072,0-3.465,1.393-3.894,3.215h7.287Z"/>
</svg>