<?xml version="1.0" encoding="UTF-8"?>
<svg id="Layer_1" data-name="Layer 1" xmlns="http://www.w3.org/2000/svg" version="1.1" viewBox="0 0 204 70">
  <rect x="16.88" y="2.322" width="65.357" height="65.357" fill="#fff" isolation="isolate" opacity=".5" stroke-width="0"/>
  <path d="M136.913,14.221" fill="#000" stroke-width="0"/>
  <path d="M15.022,70h69.536V0H14.558v70h.464ZM62.153,49.627c-.29-.29-.58-.522-.929-.813-3.25-2.96-6.675-5.63-10.332-8.01-3.366,2.032-6.849,3.889-10.39,5.572l-21.708-4.353c4.237-1.103,8.416-2.438,12.479-4.121,2.728-1.103,5.34-2.322,7.952-3.657-1.625-.813-3.25-1.509-4.934-2.148-4.063-1.625-8.242-2.96-12.479-4.121l21.708-4.353c2.438,1.161,4.818,2.38,7.197,3.657,2.67-1.915,5.166-3.947,7.604-6.095.29-.29.58-.522.929-.813l18.284-3.483c-4.701,6.327-10.274,12.073-16.484,16.949,7.43,5.34,13.988,11.841,19.502,19.212l-18.284-3.425h-.116Z" fill="#fe0103" fill-rule="evenodd" stroke-width="0"/>
  <g>
    <path d="M110.619,35.987l-12.015-15.788h8.881l7.836,10.274,7.604-10.274h8.706l-12.073,15.846,12.363,16.136h-8.881l-8.126-10.622-7.604,10.622h-8.706l12.015-16.194Z" fill="#000" stroke-width="0"/>
    <path d="M148.057,52.181c-6.095,0-10.332-3.599-10.332-10.68v-14.221h-4.585v-7.081h4.585v-5.862l7.546-2.322v8.184h6.907v7.081h-6.907v13.93c0,2.438,1.277,3.831,3.134,3.831h3.773v7.081h-4.179l.058.058Z" fill="#000" stroke-width="0"/>
    <path d="M173.422,52.819c-4.411,0-7.836-1.915-10.158-4.934v4.295h-7.255V7.313h7.546v16.833c2.322-2.786,5.746-4.585,10.041-4.585,8.823,0,15.846,7.488,15.846,16.832s-6.965,16.368-16.02,16.368h0v.058ZM181.722,36.219c0-5.398-3.773-9.229-9.229-9.229s-9.229,3.773-9.229,9.229,3.773,9.229,9.229,9.229,9.229-3.773,9.229-9.229Z" fill="#000" stroke-width="0"/>
  </g>
</svg>